<?xml version="1.0" encoding="utf-8"?>
<!-- Generator: Adobe Illustrator 23.0.3, SVG Export Plug-In . SVG Version: 6.00 Build 0)  -->
<svg version="1.1" id="Capa_1" xmlns="http://www.w3.org/2000/svg" xmlns:xlink="http://www.w3.org/1999/xlink" x="0px" y="0px"
	 viewBox="0 0 500 500" style="enable-background:new 0 0 500 500;" xml:space="preserve">
<style type="text/css">
	.st0{fill:url(#SVGID_1_);}
	.st1{fill:#FFFFFF;}
</style>
<linearGradient id="SVGID_1_" gradientUnits="userSpaceOnUse" x1="46.1299" y1="396.8609" x2="546.1299" y2="396.8609" gradientTransform="matrix(6.123234e-17 -1 1 6.123234e-17 -146.3918 546.1299)">
	<stop  offset="0" style="stop-color:#EA5A5A"/>
	<stop  offset="1" style="stop-color:#E56A6A"/>
</linearGradient>
<circle class="st0" cx="250.5" cy="250" r="250"/>
<g>
	<path class="st1" d="M316.1,302.8c-0.1-0.1-0.1-0.1-0.2-0.2L198,184.7c-0.1-0.1-0.2-0.2-0.2-0.2l-47.8-47.8
		c-3.5-3.5-9.3-3.5-12.8,0c-3.5,3.5-3.5,9.3,0,12.8l40.5,40.5c-20.6,16.3-33.4,34.4-37.2,40.1c-8,12.1-8,27.7,0,39.8
		c4.9,7.4,18.5,26.3,40.7,42.8c22.5,16.7,45.9,25.2,69.5,25.2c19.5,0,38.8-5.8,57.6-17.2l42.7,42.7c1.8,1.8,4.1,2.7,6.4,2.7
		c2.3,0,4.6-0.9,6.4-2.7c3.5-3.5,3.5-9.3,0-12.8L316.1,302.8z M221.2,233.6l12.5,12.5c-1.3,5.7,0.3,12,4.7,16.5s10.7,6,16.5,4.7
		l12,12c-5,2.8-10.6,4.3-16.4,4.3c-18.5,0-33.5-15-33.5-33.5C216.9,244.2,218.4,238.5,221.2,233.6z M250.7,319.8
		c-44,0-80.5-37.6-95.1-59.8c-4-6-4-13.9,0-19.9c3.5-5.2,15.5-22.3,35-37.2l17.6,17.6c-6,8.6-9.3,18.9-9.3,29.6
		c0,28.5,23.2,51.7,51.7,51.7c10.7,0,21-3.2,29.6-9.3l15,15C280.4,315.6,265.5,319.8,250.7,319.8z"/>
	<path class="st1" d="M228.4,183.3c7.4-2.1,14.9-3.1,22.3-3.1c43.8,0,79.9,37.3,94.6,59.6c0,0.1,0.1,0.2,0.1,0.2c1.9,3,3,6.4,3,9.9
		c0,3.5-1,7-3,9.9c-4.4,6.6-10.2,13.9-16.4,20.5c-3.4,3.6-3.3,9.4,0.3,12.8c1.8,1.7,4,2.5,6.2,2.5c2.4,0,4.8-0.9,6.6-2.8
		c8.9-9.4,15-17.7,18.5-23c3.9-5.9,6-12.8,6-19.9c0-7-2-13.7-5.7-19.6c0-0.1-0.1-0.2-0.1-0.2c-4.8-7.4-18.4-26.4-40.5-42.9
		c-22.4-16.7-45.8-25.2-69.4-25.2c-9,0-18.1,1.3-27.1,3.8c-4.8,1.3-7.6,6.3-6.3,11.2C218.6,181.9,223.6,184.7,228.4,183.3z"/>
	<path class="st1" d="M262,199.6c-4.9-1.1-9.7,1.9-10.9,6.8c-1.1,4.9,1.9,9.7,6.8,10.9c12.6,2.9,22.5,12.9,25.2,25.5
		c0.9,4.2,4.7,7.1,8.8,7.1c0.6,0,1.3-0.1,2-0.2c4.9-1.1,8-5.9,6.9-10.8C296.7,219.5,281.4,204.1,262,199.6z"/>
</g>
</svg>
