<?xml version="1.0" encoding="UTF-8"?>
<svg xmlns="http://www.w3.org/2000/svg" xmlns:xlink="http://www.w3.org/1999/xlink" width="487.5pt" height="637.499985pt" viewBox="0 0 487.5 637.499985" version="1.2">
<defs>
<clipPath id="clip1">
  <path d="M 120.667969 180.203125 L 366.667969 180.203125 L 366.667969 426.203125 L 120.667969 426.203125 Z M 120.667969 180.203125 "/>
</clipPath>
</defs>
<g id="surface1">
<path style=" stroke:none;fill-rule:nonzero;fill:rgb(9.799194%,19.999695%,30.198669%);fill-opacity:1;" d="M 243.75 64.121094 C 239.835938 64.121094 235.925781 64.21875 232.015625 64.410156 C 228.105469 64.601562 224.203125 64.890625 220.308594 65.273438 C 216.414062 65.65625 212.527344 66.136719 208.65625 66.710938 C 204.785156 67.285156 200.929688 67.953125 197.089844 68.71875 C 193.253906 69.480469 189.433594 70.339844 185.636719 71.289062 C 181.839844 72.238281 178.070312 73.285156 174.324219 74.421875 C 170.578125 75.554688 166.863281 76.785156 163.179688 78.101562 C 159.492188 79.421875 155.84375 80.828125 152.226562 82.328125 C 148.609375 83.824219 145.03125 85.410156 141.496094 87.082031 C 137.957031 88.757812 134.460938 90.515625 131.007812 92.363281 C 127.558594 94.207031 124.152344 96.136719 120.796875 98.148438 C 117.4375 100.160156 114.132812 102.253906 110.878906 104.429688 C 107.625 106.601562 104.425781 108.855469 101.28125 111.1875 C 98.136719 113.519531 95.050781 115.925781 92.027344 118.410156 C 89 120.890625 86.039062 123.449219 83.136719 126.078125 C 80.238281 128.707031 77.402344 131.402344 74.636719 134.171875 C 71.867188 136.9375 69.167969 139.773438 66.542969 142.671875 C 63.914062 145.574219 61.355469 148.535156 58.875 151.5625 C 56.390625 154.585938 53.984375 157.671875 51.652344 160.816406 C 49.320312 163.960938 47.066406 167.160156 44.890625 170.414062 C 42.71875 173.667969 40.625 176.972656 38.613281 180.332031 C 36.601562 183.6875 34.671875 187.09375 32.828125 190.542969 C 30.980469 193.996094 29.222656 197.492188 27.546875 201.03125 C 25.875 204.566406 24.289062 208.144531 22.792969 211.761719 C 21.292969 215.378906 19.886719 219.027344 18.566406 222.714844 C 17.246094 226.398438 16.019531 230.113281 14.882812 233.859375 C 13.75 237.605469 12.703125 241.375 11.753906 245.171875 C 10.800781 248.96875 9.945312 252.789062 9.179688 256.628906 C 8.417969 260.464844 7.75 264.320312 7.175781 268.191406 C 6.601562 272.066406 6.121094 275.949219 5.738281 279.84375 C 5.355469 283.738281 5.066406 287.640625 4.875 291.550781 C 4.683594 295.460938 4.585938 299.371094 4.585938 303.285156 C 4.585938 307.199219 4.683594 311.113281 4.875 315.019531 C 5.066406 318.929688 5.355469 322.832031 5.738281 326.726562 C 6.121094 330.621094 6.601562 334.507812 7.175781 338.378906 C 7.75 342.25 8.417969 346.105469 9.179688 349.945312 C 9.945312 353.78125 10.800781 357.601562 11.753906 361.398438 C 12.703125 365.195312 13.75 368.964844 14.882812 372.710938 C 16.019531 376.457031 17.246094 380.171875 18.566406 383.855469 C 19.886719 387.542969 21.292969 391.195312 22.792969 394.808594 C 24.289062 398.425781 25.875 402.003906 27.546875 405.542969 C 29.222656 409.078125 30.980469 412.574219 32.828125 416.027344 C 34.671875 419.480469 36.601562 422.882812 38.613281 426.242188 C 40.625 429.597656 42.71875 432.902344 44.890625 436.15625 C 47.066406 439.414062 49.320312 442.613281 51.652344 445.753906 C 53.984375 448.898438 56.390625 451.984375 58.875 455.007812 C 61.355469 458.035156 63.914062 460.996094 66.542969 463.898438 C 69.167969 466.796875 71.867188 469.632812 74.636719 472.398438 C 77.402344 475.167969 80.238281 477.867188 83.136719 480.496094 C 86.039062 483.121094 89 485.679688 92.027344 488.160156 C 95.050781 490.644531 98.136719 493.050781 101.28125 495.382812 C 104.425781 497.714844 107.625 499.96875 110.878906 502.144531 C 114.132812 504.316406 117.4375 506.410156 120.796875 508.421875 C 124.152344 510.433594 127.558594 512.363281 131.007812 514.210938 C 134.460938 516.054688 137.957031 517.8125 141.496094 519.488281 C 145.03125 521.160156 148.609375 522.746094 152.226562 524.242188 C 155.84375 525.742188 159.492188 527.148438 163.179688 528.46875 C 166.863281 529.789062 170.578125 531.015625 174.324219 532.152344 C 178.070312 533.289062 181.839844 534.332031 185.636719 535.28125 C 189.433594 536.234375 193.253906 537.089844 197.089844 537.855469 C 200.929688 538.617188 204.785156 539.285156 208.65625 539.859375 C 212.527344 540.433594 216.414062 540.914062 220.308594 541.296875 C 224.203125 541.679688 228.105469 541.96875 232.015625 542.160156 C 235.925781 542.351562 239.835938 542.449219 243.75 542.449219 C 247.664062 542.449219 251.574219 542.351562 255.484375 542.160156 C 259.394531 541.96875 263.296875 541.679688 267.191406 541.296875 C 271.085938 540.914062 274.972656 540.433594 278.84375 539.859375 C 282.714844 539.285156 286.570312 538.617188 290.410156 537.855469 C 294.246094 537.089844 298.066406 536.234375 301.863281 535.28125 C 305.660156 534.332031 309.429688 533.289062 313.175781 532.152344 C 316.921875 531.015625 320.636719 529.789062 324.320312 528.46875 C 328.007812 527.148438 331.65625 525.742188 335.273438 524.242188 C 338.890625 522.746094 342.46875 521.160156 346.003906 519.488281 C 349.542969 517.8125 353.039062 516.054688 356.492188 514.210938 C 359.941406 512.363281 363.347656 510.433594 366.703125 508.421875 C 370.0625 506.410156 373.367188 504.316406 376.621094 502.144531 C 379.875 499.96875 383.074219 497.714844 386.21875 495.382812 C 389.363281 493.050781 392.449219 490.644531 395.472656 488.160156 C 398.5 485.679688 401.460938 483.121094 404.363281 480.496094 C 407.261719 477.867188 410.097656 475.167969 412.863281 472.398438 C 415.632812 469.632812 418.332031 466.796875 420.957031 463.898438 C 423.585938 460.996094 426.144531 458.035156 428.625 455.007812 C 431.109375 451.984375 433.515625 448.898438 435.847656 445.753906 C 438.179688 442.613281 440.433594 439.414062 442.609375 436.15625 C 444.78125 432.902344 446.875 429.597656 448.886719 426.242188 C 450.898438 422.882812 452.828125 419.476562 454.671875 416.027344 C 456.519531 412.574219 458.277344 409.078125 459.953125 405.542969 C 461.625 402.003906 463.210938 398.425781 464.707031 394.808594 C 466.207031 391.195312 467.613281 387.542969 468.933594 383.855469 C 470.25 380.171875 471.480469 376.457031 472.617188 372.710938 C 473.75 368.964844 474.796875 365.195312 475.746094 361.398438 C 476.699219 357.601562 477.554688 353.78125 478.316406 349.945312 C 479.082031 346.105469 479.75 342.25 480.324219 338.378906 C 480.898438 334.507812 481.378906 330.621094 481.761719 326.726562 C 482.144531 322.832031 482.433594 318.929688 482.625 315.019531 C 482.816406 311.113281 482.914062 307.199219 482.914062 303.285156 C 482.914062 299.371094 482.816406 295.460938 482.625 291.550781 C 482.433594 287.640625 482.144531 283.738281 481.761719 279.84375 C 481.378906 275.949219 480.898438 272.066406 480.324219 268.191406 C 479.75 264.320312 479.082031 260.464844 478.316406 256.628906 C 477.554688 252.789062 476.699219 248.96875 475.746094 245.171875 C 474.796875 241.375 473.75 237.605469 472.617188 233.859375 C 471.480469 230.113281 470.25 226.398438 468.933594 222.714844 C 467.613281 219.027344 466.207031 215.378906 464.707031 211.761719 C 463.210938 208.144531 461.625 204.566406 459.953125 201.03125 C 458.277344 197.492188 456.519531 193.996094 454.671875 190.542969 C 452.828125 187.09375 450.898438 183.6875 448.886719 180.332031 C 446.875 176.972656 444.78125 173.667969 442.605469 170.414062 C 440.433594 167.160156 438.179688 163.960938 435.847656 160.816406 C 433.515625 157.671875 431.109375 154.585938 428.625 151.5625 C 426.144531 148.535156 423.585938 145.574219 420.957031 142.671875 C 418.332031 139.773438 415.632812 136.9375 412.863281 134.171875 C 410.097656 131.402344 407.261719 128.707031 404.363281 126.078125 C 401.460938 123.449219 398.5 120.890625 395.472656 118.410156 C 392.449219 115.925781 389.363281 113.519531 386.21875 111.1875 C 383.074219 108.855469 379.875 106.601562 376.621094 104.429688 C 373.367188 102.253906 370.0625 100.160156 366.703125 98.148438 C 363.347656 96.136719 359.941406 94.207031 356.492188 92.363281 C 353.039062 90.515625 349.542969 88.757812 346.003906 87.082031 C 342.46875 85.410156 338.890625 83.824219 335.273438 82.328125 C 331.65625 80.828125 328.007812 79.421875 324.320312 78.101562 C 320.636719 76.785156 316.921875 75.554688 313.175781 74.421875 C 309.429688 73.285156 305.660156 72.238281 301.863281 71.289062 C 298.066406 70.339844 294.246094 69.480469 290.410156 68.71875 C 286.570312 67.953125 282.714844 67.285156 278.84375 66.710938 C 274.972656 66.136719 271.085938 65.65625 267.191406 65.273438 C 263.296875 64.890625 259.394531 64.601562 255.484375 64.410156 C 251.574219 64.21875 247.664062 64.121094 243.75 64.121094 Z M 243.75 64.121094 "/>
<g clip-path="url(#clip1)" clip-rule="nonzero">
<path style=" stroke:none;fill-rule:nonzero;fill:rgb(100%,100%,100%);fill-opacity:1;" d="M 243.585938 180.203125 C 243.648438 180.203125 243.710938 180.203125 243.773438 180.207031 C 249.886719 180.234375 255.441406 182.742188 259.46875 186.769531 C 263.511719 190.8125 266.015625 196.40625 266.019531 202.570312 L 266.035156 202.570312 L 266.035156 280.839844 L 344.304688 280.839844 C 350.457031 280.839844 356.046875 283.355469 360.101562 287.40625 C 364.132812 291.4375 366.644531 296.996094 366.667969 303.121094 C 366.667969 303.183594 366.667969 303.246094 366.667969 303.3125 C 366.636719 309.421875 364.128906 314.972656 360.101562 319.003906 C 356.058594 323.046875 350.464844 325.550781 344.304688 325.550781 L 344.304688 325.570312 L 266.035156 325.570312 L 266.035156 403.839844 C 266.035156 409.992188 263.519531 415.585938 259.46875 419.636719 C 255.433594 423.667969 249.875 426.179688 243.75 426.199219 C 243.6875 426.203125 243.625 426.203125 243.5625 426.199219 C 237.449219 426.175781 231.898438 423.664062 227.871094 419.636719 C 223.828125 415.59375 221.320312 410 221.320312 403.839844 L 221.304688 403.839844 L 221.304688 325.570312 L 143.035156 325.570312 C 136.882812 325.570312 131.289062 323.054688 127.234375 319.003906 C 123.203125 314.96875 120.691406 309.410156 120.671875 303.289062 C 120.667969 303.222656 120.667969 303.160156 120.671875 303.097656 C 120.699219 296.984375 123.207031 291.433594 127.234375 287.40625 C 131.277344 283.359375 136.871094 280.855469 143.035156 280.855469 L 143.035156 280.839844 L 221.304688 280.839844 L 221.304688 202.570312 C 221.304688 196.417969 223.820312 190.820312 227.871094 186.769531 C 231.902344 182.738281 237.460938 180.226562 243.585938 180.203125 "/>
</g>
</g>
</svg>
