<svg width="21" height="23" viewBox="0 0 21 23" fill="none" xmlns="http://www.w3.org/2000/svg">
<path d="M13.8333 17.3333H19.6667L18.0275 15.6942C17.8074 15.474 17.6328 15.2126 17.5137 14.925C17.3946 14.6373 17.3333 14.329 17.3333 14.0177V10.3333C17.3335 8.88542 16.8848 7.47306 16.0491 6.2907C15.2134 5.10834 14.0317 4.21412 12.6667 3.73117V3.33333C12.6667 2.71449 12.4208 2.121 11.9832 1.68342C11.5457 1.24583 10.9522 1 10.3333 1C9.71449 1 9.121 1.24583 8.68342 1.68342C8.24583 2.121 8 2.71449 8 3.33333V3.73117C5.28167 4.6925 3.33333 7.286 3.33333 10.3333V14.0188C3.33333 14.6465 3.08367 15.2497 2.63917 15.6942L1 17.3333H6.83333M13.8333 17.3333V18.5C13.8333 19.4283 13.4646 20.3185 12.8082 20.9749C12.1518 21.6313 11.2616 22 10.3333 22C9.40508 22 8.51484 21.6313 7.85846 20.9749C7.20208 20.3185 6.83333 19.4283 6.83333 18.5V17.3333M13.8333 17.3333H6.83333" stroke="#8B8B8B" stroke-width="1.6" stroke-linecap="round" stroke-linejoin="round"/>
</svg>
