<?xml version="1.0" encoding="UTF-8" standalone="no"?> <svg id="Layer_1" data-name="Layer 1" xmlns="http://www.w3.org/2000/svg" viewBox="0 0 128 128"><defs><style>.cls-1{fill:#2d3e50;}</style></defs><title>n</title><path class="cls-1" d="M105.6064,17.89172A65.90911,65.90911,0,0,0,64,3.44709c-34.63472,0-62.71036,25.68876-62.71036,57.37748,0,.15425,0,.31234.00386.46659-.00386.07327-.00386.14267-.00386.21594A48.8561,48.8561,0,0,0,3.65338,76.48c.03085.1041.06557.21208.10026.32A55.89918,55.89918,0,0,0,16.3281,98.10451,26.08286,26.08286,0,0,1,9.39885,122.247a1.35039,1.35039,0,0,0,.95242,2.30589,40.288,40.288,0,0,0,27.72861-11.20944l.18508-.17739A67.409,67.409,0,0,0,64,118.20591c19.10268,0,36.208-7.81612,47.71045-20.14381a54.36311,54.36311,0,0,0,14.9999-37.23753C126.71036,43.74243,118.551,28.40322,105.6064,17.89172Z"/></svg>