<svg width="18" height="15" viewBox="0 0 18 15" fill="none" xmlns="http://www.w3.org/2000/svg">
<path d="M14.625 11.7692C14.625 11.8846 14.625 11.8846 14.625 11.7692C14.625 11.8846 14.625 11.8846 14.625 11.7692ZM8.6625 0C13.6125 0 18 3 18 6.46154C18 8.76923 16.7625 10.7308 14.625 11.8846C12.4875 13.0385 14.625 12 14.625 12C14.7375 13.5 15.6375 13.9615 15.6375 13.9615L17.6625 15H15.4125C12.6 15 10.575 13.7308 9.675 12.8077H8.775C3.9375 12.8077 0 9.92308 0 6.34615C0 2.76923 3.825 0 8.6625 0ZM8.775 11.6538H10.125L10.35 11.8846C10.9125 12.4615 12.15 13.5 14.0625 13.8462C13.725 13.2692 13.5 12.5769 13.5 11.5385V11.1923L13.8375 11.0769C15.8625 10.0385 16.875 8.42308 16.875 6.46154C16.875 3.69231 12.9375 1.15385 8.6625 1.15385C4.5 1.15385 1.125 3.46154 1.125 6.46154C1.125 9.23077 4.6125 11.6538 8.775 11.6538Z" fill="black"/>
</svg>
