<svg xmlns="http://www.w3.org/2000/svg" xmlns:xlink="http://www.w3.org/1999/xlink" width="500" zoomAndPan="magnify" viewBox="0 0 375 374.999991" height="500" preserveAspectRatio="xMidYMid meet" version="1.0"><path fill="#ff5757" d="M 187.5 0 C 83.945312 0 0 83.945312 0 187.5 C 0 291.054688 83.945312 375 187.5 375 C 291.054688 375 375 291.054688 375 187.5 C 375 83.945312 291.054688 0 187.5 0 Z M 296.527344 192.800781 C 291.183594 198.144531 283.296875 199.386719 276.765625 196.539062 L 276.765625 267.65625 C 276.765625 282.445312 264.773438 294.433594 249.984375 294.433594 L 125.015625 294.433594 C 110.226562 294.433594 98.238281 282.445312 98.238281 267.65625 L 98.238281 196.539062 C 91.703125 199.386719 83.816406 198.144531 78.472656 192.800781 C 71.5 185.828125 71.5 174.523438 78.472656 167.550781 L 174.875 71.148438 C 181.847656 64.175781 193.152344 64.175781 200.125 71.148438 L 296.527344 167.550781 C 303.5 174.523438 303.5 185.828125 296.527344 192.800781 Z M 296.527344 192.800781 " fill-opacity="1" fill-rule="nonzero"/><path fill="#ff5757" d="M 209.816406 196.242188 L 165.183594 196.242188 C 160.253906 196.242188 156.257812 200.242188 156.257812 205.171875 L 156.257812 258.730469 C 156.257812 263.660156 160.253906 267.65625 165.183594 267.65625 L 209.816406 267.65625 C 214.746094 267.65625 218.742188 263.660156 218.742188 258.730469 L 218.742188 205.171875 C 218.742188 200.238281 214.746094 196.242188 209.816406 196.242188 Z M 209.816406 196.242188 " fill-opacity="1" fill-rule="nonzero"/></svg>