<svg width="32" height="22" viewBox="0 0 32 22" fill="none" xmlns="http://www.w3.org/2000/svg">
<path d="M1 18.9533C6.50922 15.0772 9.72262 15.4195 15.5895 18.9533C10.4447 21.8863 7.30418 22.172 1 18.9533Z" stroke="#8B8B8B"/>
<path d="M3.2952 8.81727C11.3217 7.98334 13.781 10.4452 15.7879 18.2341C8.87867 18.235 5.94563 16.5315 3.2952 8.81727Z" stroke="#8B8B8B"/>
<path d="M31 18.9533C25.4908 15.0772 22.2774 15.4195 16.4105 18.9533C21.5553 21.8863 24.6958 22.172 31 18.9533Z" stroke="#8B8B8B"/>
<path d="M28.7048 8.81727C20.6783 7.98334 18.219 10.4452 16.2121 18.2341C23.1213 18.235 26.0544 16.5315 28.7048 8.81727Z" stroke="#8B8B8B"/>
<path d="M15.8481 1C21.1828 7.17032 20.7116 10.7693 15.8481 17.3402C11.8116 11.5781 11.4184 8.06068 15.8481 1Z" stroke="#8B8B8B"/>
</svg>
