<svg width="22" height="29" viewBox="0 0 22 29" fill="none" xmlns="http://www.w3.org/2000/svg">
<path d="M11.4409 21.2537L9.29444 27.9999L6.84122 24.9335L2.8548 26.16L5.30801 19.1071" stroke="#8B8B8B" stroke-miterlimit="10" stroke-linecap="round" stroke-linejoin="round"/>
<path d="M16.3781 19.7511L19.4138 24.9331L15.7341 24.6264L13.5876 27.9995L10.8278 23.7065" stroke="#8B8B8B" stroke-miterlimit="10" stroke-linecap="round" stroke-linejoin="round"/>
<path d="M21.1004 11.4716L20.5486 12.0543L21.0085 12.7289C21.1618 12.9437 21.1004 13.2502 20.8859 13.4036L20.1807 13.8943L20.518 14.6915C20.6099 14.9368 20.4874 15.2128 20.2726 15.3048L19.5366 15.6115L19.6899 16.4087C19.7513 16.654 19.5674 16.93 19.322 16.9606L18.494 17.1445V18.0031C18.494 18.279 18.2793 18.4938 18.0033 18.4938H17.2061L17.0528 19.291C16.9914 19.5363 16.746 19.7203 16.5009 19.6589L15.6729 19.5055L15.3356 20.3027C15.2436 20.5481 14.9676 20.6707 14.7223 20.5481L13.9863 20.2413L13.5569 20.916C13.4036 21.1308 13.1276 21.1919 12.8823 21.0386L12.1771 20.5787L11.5638 21.192C11.3798 21.3759 11.0731 21.3759 10.8891 21.192L10.2143 20.5485L9.53961 21.0084C9.32485 21.1618 9.01834 21.1004 8.86495 20.8859L8.37425 20.1806L7.57706 20.5179C7.33172 20.6099 7.05579 20.4874 6.96379 20.2726L6.65706 19.5366L5.92122 19.6285C5.67588 19.6899 5.39995 19.506 5.36935 19.2606L5.18539 18.4326H4.32681C4.05088 18.4326 3.83611 18.2178 3.83611 17.9419V17.1447L3.03892 16.9913C2.79357 16.9299 2.60961 16.6846 2.671 16.4395L2.82437 15.6115L2.02717 15.2741C1.78183 15.1822 1.65926 14.9062 1.78183 14.6609L2.08857 13.9248L1.41392 13.4955C1.19916 13.3422 1.13798 13.0356 1.29135 12.8209L1.75123 12.1156L1.13797 11.5024C0.954011 11.3184 0.954011 11.0117 1.13797 10.8277L1.68984 10.2758L1.22996 9.60118C1.07659 9.38643 1.13798 9.07991 1.35252 8.92653L2.05775 8.43583L1.72044 7.63864C1.62847 7.39329 1.75103 7.11736 1.96578 7.02537L2.70183 6.71863L2.64001 5.92122C2.57862 5.67588 2.76258 5.39995 3.00793 5.36935L3.83594 5.18539V4.32681C3.83594 4.05088 4.0507 3.83611 4.32664 3.83611H5.12383L5.2772 3.03892C5.33859 2.79357 5.58394 2.60961 5.82908 2.671L6.65709 2.82437L6.9944 2.02718C7.08637 1.78183 7.36231 1.65926 7.60766 1.78183L8.34371 2.08857L8.77302 1.41392C8.92639 1.19916 9.20233 1.13798 9.44768 1.29135L10.1529 1.75123L10.7662 1.13797C10.9501 0.954011 11.2569 0.954011 11.4408 1.13797L12.0543 1.7202L12.729 1.26032C12.9437 1.10695 13.2502 1.16834 13.4036 1.38288L13.8943 2.08811L14.6915 1.7508C14.9369 1.65882 15.2128 1.78139 15.3048 1.99614L15.6115 2.73219L16.4087 2.57882C16.6541 2.51743 16.93 2.70139 16.9606 2.94674L17.1445 3.77475H18.0031C18.2791 3.77475 18.4938 3.98951 18.4938 4.26545V5.06264L19.291 5.21601C19.5364 5.2774 19.7203 5.52275 19.6589 5.76788L19.5056 6.59589L20.3028 6.93321C20.5481 7.02518 20.6707 7.30112 20.5481 7.54647L20.2414 8.28252L20.916 8.71183C21.1308 8.86519 21.1919 9.14113 21.0386 9.38648L20.5787 10.0917L21.192 10.705C21.2844 10.9811 21.2844 11.2876 21.1004 11.4716L21.1004 11.4716Z" stroke="#8B8B8B" stroke-miterlimit="10" stroke-linecap="round" stroke-linejoin="round"/>
<path d="M18.5877 11.3926C18.5877 15.3666 15.3662 18.5878 11.3926 18.5878C7.41907 18.5878 4.19757 15.3666 4.19757 11.3926C4.19757 7.41902 7.41907 4.19775 11.3926 4.19775C15.3662 4.19775 18.5877 7.41902 18.5877 11.3926Z" stroke="#8B8B8B" stroke-miterlimit="10" stroke-linecap="round" stroke-linejoin="round"/>
</svg>
