<svg xmlns="http://www.w3.org/2000/svg" xmlns:xlink="http://www.w3.org/1999/xlink" width="500" zoomAndPan="magnify" viewBox="0 0 375 374.999991" height="500" preserveAspectRatio="xMidYMid meet" version="1.0"><defs><clipPath id="id1"><path d="M 15.050781 15.050781 L 360.050781 15.050781 L 360.050781 360.050781 L 15.050781 360.050781 Z M 15.050781 15.050781 " clip-rule="nonzero"/></clipPath></defs><rect x="-37.5" width="450" fill="#ffffff" y="-37.499999" height="449.999989" fill-opacity="1"/><rect x="-37.5" width="450" fill="#ffffff" y="-37.499999" height="449.999989" fill-opacity="1"/><rect x="-37.5" width="450" fill="#ffffff" y="-37.499999" height="449.999989" fill-opacity="1"/><g clip-path="url(#id1)"><path fill="#ff6b6b" d="M 360.050781 187.550781 C 360.050781 190.375 359.980469 193.195312 359.84375 196.015625 C 359.707031 198.835938 359.496094 201.648438 359.222656 204.460938 C 358.945312 207.269531 358.597656 210.070312 358.183594 212.863281 C 357.769531 215.65625 357.289062 218.4375 356.738281 221.203125 C 356.1875 223.972656 355.566406 226.726562 354.882812 229.464844 C 354.195312 232.203125 353.441406 234.925781 352.625 237.625 C 351.804688 240.328125 350.917969 243.007812 349.96875 245.664062 C 349.015625 248.324219 348 250.957031 346.921875 253.5625 C 345.839844 256.171875 344.695312 258.753906 343.488281 261.304688 C 342.28125 263.855469 341.011719 266.378906 339.683594 268.867188 C 338.351562 271.355469 336.960938 273.8125 335.507812 276.234375 C 334.058594 278.65625 332.546875 281.039062 330.980469 283.386719 C 329.410156 285.734375 327.785156 288.042969 326.105469 290.308594 C 324.421875 292.578125 322.6875 294.800781 320.894531 296.984375 C 319.105469 299.167969 317.261719 301.304688 315.367188 303.394531 C 313.46875 305.488281 311.523438 307.53125 309.527344 309.527344 C 307.53125 311.523438 305.488281 313.46875 303.394531 315.367188 C 301.304688 317.261719 299.167969 319.105469 296.984375 320.894531 C 294.800781 322.6875 292.578125 324.421875 290.308594 326.105469 C 288.042969 327.785156 285.734375 329.410156 283.386719 330.980469 C 281.039062 332.546875 278.65625 334.058594 276.234375 335.507812 C 273.8125 336.960938 271.355469 338.351562 268.867188 339.683594 C 266.378906 341.011719 263.855469 342.28125 261.304688 343.488281 C 258.753906 344.695312 256.171875 345.839844 253.5625 346.921875 C 250.957031 348 248.324219 349.015625 245.664062 349.96875 C 243.007812 350.917969 240.328125 351.804688 237.625 352.625 C 234.925781 353.441406 232.203125 354.195312 229.464844 354.882812 C 226.726562 355.566406 223.972656 356.1875 221.203125 356.738281 C 218.4375 357.289062 215.65625 357.769531 212.863281 358.183594 C 210.070312 358.597656 207.269531 358.945312 204.460938 359.222656 C 201.648438 359.496094 198.835938 359.707031 196.015625 359.84375 C 193.195312 359.980469 190.375 360.050781 187.550781 360.050781 C 184.726562 360.050781 181.90625 359.980469 179.085938 359.84375 C 176.265625 359.707031 173.453125 359.496094 170.644531 359.222656 C 167.832031 358.945312 165.03125 358.597656 162.242188 358.183594 C 159.449219 357.769531 156.667969 357.289062 153.898438 356.738281 C 151.128906 356.1875 148.375 355.566406 145.636719 354.882812 C 142.898438 354.195312 140.179688 353.441406 137.476562 352.625 C 134.777344 351.804688 132.097656 350.917969 129.4375 349.96875 C 126.78125 349.015625 124.148438 348 121.539062 346.921875 C 118.929688 345.839844 116.351562 344.695312 113.796875 343.488281 C 111.246094 342.28125 108.726562 341.011719 106.234375 339.683594 C 103.746094 338.351562 101.289062 336.960938 98.867188 335.507812 C 96.449219 334.058594 94.0625 332.546875 91.714844 330.980469 C 89.367188 329.410156 87.0625 327.785156 84.792969 326.105469 C 82.527344 324.421875 80.300781 322.6875 78.117188 320.894531 C 75.9375 319.105469 73.800781 317.261719 71.707031 315.367188 C 69.617188 313.46875 67.570312 311.523438 65.574219 309.527344 C 63.578125 307.53125 61.632812 305.488281 59.738281 303.394531 C 57.839844 301.304688 56 299.167969 54.207031 296.984375 C 52.417969 294.800781 50.679688 292.578125 49 290.308594 C 47.316406 288.042969 45.691406 285.734375 44.121094 283.386719 C 42.554688 281.039062 41.042969 278.65625 39.59375 276.234375 C 38.140625 273.8125 36.75 271.355469 35.421875 268.867188 C 34.089844 266.378906 32.820312 263.855469 31.613281 261.304688 C 30.40625 258.753906 29.261719 256.171875 28.183594 253.5625 C 27.101562 250.957031 26.085938 248.324219 25.136719 245.664062 C 24.183594 243.007812 23.296875 240.328125 22.480469 237.625 C 21.660156 234.925781 20.90625 232.203125 20.222656 229.464844 C 19.535156 226.726562 18.917969 223.972656 18.367188 221.203125 C 17.816406 218.4375 17.332031 215.65625 16.917969 212.863281 C 16.503906 210.070312 16.160156 207.269531 15.882812 204.460938 C 15.605469 201.648438 15.398438 198.835938 15.257812 196.015625 C 15.121094 193.195312 15.050781 190.375 15.050781 187.550781 C 15.050781 184.726562 15.121094 181.90625 15.257812 179.085938 C 15.398438 176.265625 15.605469 173.453125 15.882812 170.644531 C 16.160156 167.832031 16.503906 165.03125 16.917969 162.242188 C 17.332031 159.449219 17.816406 156.667969 18.367188 153.898438 C 18.917969 151.128906 19.535156 148.375 20.222656 145.636719 C 20.90625 142.898438 21.660156 140.179688 22.480469 137.476562 C 23.296875 134.777344 24.183594 132.097656 25.136719 129.4375 C 26.085938 126.78125 27.101562 124.148438 28.183594 121.539062 C 29.261719 118.929688 30.40625 116.351562 31.613281 113.796875 C 32.820312 111.246094 34.089844 108.726562 35.421875 106.234375 C 36.75 103.746094 38.140625 101.289062 39.59375 98.867188 C 41.042969 96.445312 42.554688 94.0625 44.121094 91.714844 C 45.691406 89.367188 47.316406 87.0625 49 84.792969 C 50.679688 82.527344 52.417969 80.300781 54.207031 78.117188 C 56 75.9375 57.839844 73.800781 59.738281 71.707031 C 61.632812 69.617188 63.578125 67.570312 65.574219 65.574219 C 67.570312 63.578125 69.617188 61.632812 71.707031 59.738281 C 73.800781 57.839844 75.9375 56 78.117188 54.207031 C 80.300781 52.417969 82.527344 50.679688 84.792969 49 C 87.0625 47.316406 89.367188 45.691406 91.714844 44.121094 C 94.0625 42.554688 96.449219 41.042969 98.867188 39.59375 C 101.289062 38.140625 103.746094 36.75 106.234375 35.421875 C 108.726562 34.089844 111.246094 32.820312 113.796875 31.613281 C 116.351562 30.40625 118.929688 29.261719 121.539062 28.183594 C 124.148438 27.101562 126.78125 26.085938 129.4375 25.136719 C 132.097656 24.183594 134.777344 23.296875 137.476562 22.480469 C 140.179688 21.660156 142.898438 20.90625 145.636719 20.222656 C 148.375 19.535156 151.128906 18.917969 153.898438 18.367188 C 156.667969 17.816406 159.449219 17.332031 162.242188 16.917969 C 165.03125 16.503906 167.835938 16.160156 170.644531 15.882812 C 173.453125 15.605469 176.265625 15.398438 179.085938 15.257812 C 181.90625 15.121094 184.726562 15.050781 187.550781 15.050781 C 190.375 15.050781 193.195312 15.121094 196.015625 15.257812 C 198.835938 15.398438 201.648438 15.605469 204.460938 15.882812 C 207.269531 16.160156 210.070312 16.503906 212.863281 16.917969 C 215.65625 17.332031 218.4375 17.816406 221.203125 18.367188 C 223.972656 18.917969 226.726562 19.535156 229.464844 20.222656 C 232.203125 20.90625 234.925781 21.660156 237.625 22.480469 C 240.328125 23.296875 243.007812 24.183594 245.664062 25.136719 C 248.324219 26.085938 250.957031 27.101562 253.5625 28.183594 C 256.171875 29.261719 258.753906 30.40625 261.304688 31.613281 C 263.855469 32.820312 266.378906 34.089844 268.867188 35.421875 C 271.355469 36.75 273.8125 38.140625 276.234375 39.59375 C 278.65625 41.042969 281.039062 42.554688 283.386719 44.121094 C 285.734375 45.691406 288.042969 47.316406 290.308594 49 C 292.578125 50.679688 294.800781 52.417969 296.984375 54.207031 C 299.167969 56 301.304688 57.839844 303.394531 59.738281 C 305.488281 61.632812 307.53125 63.578125 309.527344 65.574219 C 311.523438 67.570312 313.46875 69.617188 315.367188 71.707031 C 317.261719 73.800781 319.105469 75.9375 320.894531 78.117188 C 322.6875 80.300781 324.421875 82.527344 326.105469 84.792969 C 327.785156 87.0625 329.410156 89.367188 330.980469 91.714844 C 332.546875 94.0625 334.058594 96.445312 335.507812 98.867188 C 336.960938 101.289062 338.351562 103.746094 339.683594 106.234375 C 341.011719 108.726562 342.28125 111.246094 343.488281 113.796875 C 344.695312 116.351562 345.839844 118.929688 346.921875 121.539062 C 348 124.148438 349.015625 126.78125 349.96875 129.4375 C 350.917969 132.097656 351.804688 134.777344 352.625 137.476562 C 353.441406 140.179688 354.195312 142.898438 354.882812 145.636719 C 355.566406 148.375 356.1875 151.128906 356.738281 153.898438 C 357.289062 156.667969 357.769531 159.449219 358.183594 162.242188 C 358.597656 165.03125 358.945312 167.832031 359.222656 170.644531 C 359.496094 173.453125 359.707031 176.265625 359.84375 179.085938 C 359.980469 181.90625 360.050781 184.726562 360.050781 187.550781 Z M 360.050781 187.550781 " fill-opacity="1" fill-rule="nonzero"/></g><path fill="#ffffff" d="M 268.066406 141.25 L 266.878906 132.921875 C 266.773438 132.175781 266.601562 131.449219 266.363281 130.734375 C 266.125 130.019531 265.828125 129.332031 265.46875 128.667969 C 265.109375 128.007812 264.691406 127.382812 264.222656 126.796875 C 263.75 126.210938 263.230469 125.671875 262.660156 125.179688 C 262.089844 124.683594 261.484375 124.246094 260.835938 123.863281 C 260.1875 123.476562 259.511719 123.152344 258.808594 122.890625 C 258.101562 122.628906 257.378906 122.429688 256.636719 122.296875 C 255.898438 122.164062 255.152344 122.097656 254.398438 122.097656 L 168.515625 122.097656 C 167.6875 122.09375 166.867188 122.175781 166.054688 122.335938 C 165.242188 122.496094 164.453125 122.734375 163.6875 123.050781 C 162.921875 123.367188 162.195312 123.753906 161.503906 124.214844 C 160.816406 124.675781 160.179688 125.199219 159.59375 125.78125 C 159.007812 126.367188 158.484375 127.007812 158.023438 127.695312 C 157.566406 128.382812 157.175781 129.113281 156.859375 129.878906 C 156.542969 130.644531 156.304688 131.433594 156.144531 132.246094 C 155.984375 133.058594 155.90625 133.878906 155.90625 134.707031 L 155.90625 216.339844 C 155.910156 218.738281 156.546875 220.953125 157.808594 222.992188 C 161.320312 228.476562 169.515625 238.015625 175.476562 248.84375 C 177.78125 252.65625 179.570312 256.699219 180.84375 260.96875 C 182.121094 265.238281 182.839844 269.597656 183.007812 274.050781 C 182.6875 276.105469 182.796875 278.136719 183.339844 280.144531 C 183.878906 282.152344 184.804688 283.964844 186.113281 285.578125 C 186.804688 286.128906 187.570312 286.539062 188.414062 286.808594 C 189.253906 287.078125 190.117188 287.191406 191 287.148438 C 193.808594 287.105469 196.527344 286.597656 199.164062 285.625 C 203.890625 284.183594 208.175781 281.90625 212.011719 278.785156 C 212.601562 278.050781 213.105469 277.257812 213.515625 276.410156 C 213.929688 275.558594 214.242188 274.675781 214.457031 273.757812 C 214.671875 272.835938 214.78125 271.90625 214.785156 270.960938 C 214.789062 270.015625 214.691406 269.082031 214.484375 268.164062 L 209.453125 245.558594 C 209.253906 244.667969 209.105469 243.765625 209.007812 242.855469 C 208.910156 241.945312 208.863281 241.035156 208.871094 240.121094 C 208.875 239.207031 208.929688 238.296875 209.035156 237.386719 C 209.140625 236.480469 209.300781 235.578125 209.507812 234.6875 C 209.714844 233.796875 209.96875 232.921875 210.273438 232.058594 C 210.582031 231.199219 210.933594 230.355469 211.332031 229.535156 C 211.730469 228.710938 212.175781 227.914062 212.664062 227.140625 C 213.152344 226.367188 213.683594 225.625 214.253906 224.910156 C 214.828125 224.199219 215.4375 223.519531 216.085938 222.875 C 216.734375 222.230469 217.414062 221.621094 218.132812 221.054688 C 218.847656 220.484375 219.59375 219.957031 220.367188 219.472656 C 221.144531 218.984375 221.941406 218.546875 222.765625 218.148438 C 223.589844 217.753906 224.433594 217.40625 225.296875 217.105469 C 226.160156 216.800781 227.039062 216.550781 227.929688 216.347656 C 228.820312 216.144531 229.722656 215.992188 230.628906 215.886719 C 231.539062 215.785156 232.449219 215.734375 233.363281 215.734375 L 264.164062 215.734375 C 264.617188 215.734375 265.066406 215.710938 265.511719 215.664062 C 265.960938 215.617188 266.40625 215.542969 266.84375 215.449219 C 267.285156 215.351562 267.71875 215.234375 268.148438 215.09375 C 268.574219 214.949219 268.992188 214.785156 269.402344 214.597656 C 269.8125 214.410156 270.210938 214.203125 270.597656 213.972656 C 270.984375 213.742188 271.359375 213.496094 271.722656 213.222656 C 272.082031 212.953125 272.425781 212.667969 272.757812 212.359375 C 273.085938 212.050781 273.398438 211.730469 273.695312 211.386719 C 273.988281 211.046875 274.265625 210.691406 274.523438 210.324219 C 274.777344 209.953125 275.015625 209.570312 275.230469 209.175781 C 275.449219 208.78125 275.640625 208.375 275.8125 207.957031 C 275.988281 207.542969 276.136719 207.117188 276.261719 206.683594 C 276.390625 206.253906 276.492188 205.816406 276.574219 205.371094 C 276.652344 204.929688 276.710938 204.480469 276.742188 204.03125 C 276.773438 203.582031 276.78125 203.132812 276.765625 202.683594 C 276.75 202.234375 276.707031 201.785156 276.644531 201.339844 L 252.507812 201.339844 C 252.117188 201.339844 251.730469 201.300781 251.347656 201.226562 C 250.964844 201.148438 250.589844 201.035156 250.230469 200.886719 C 249.871094 200.738281 249.527344 200.554688 249.203125 200.335938 C 248.878906 200.121094 248.578125 199.875 248.300781 199.597656 C 248.023438 199.320312 247.777344 199.019531 247.5625 198.695312 C 247.34375 198.371094 247.160156 198.027344 247.011719 197.667969 C 246.863281 197.308594 246.75 196.933594 246.671875 196.550781 C 246.597656 196.167969 246.558594 195.78125 246.558594 195.390625 C 246.558594 195 246.597656 194.613281 246.671875 194.230469 C 246.75 193.847656 246.863281 193.476562 247.011719 193.113281 C 247.160156 192.753906 247.34375 192.410156 247.5625 192.085938 C 247.777344 191.761719 248.023438 191.460938 248.300781 191.183594 C 248.578125 190.910156 248.878906 190.664062 249.203125 190.445312 C 249.527344 190.226562 249.871094 190.046875 250.230469 189.894531 C 250.589844 189.746094 250.964844 189.632812 251.347656 189.558594 C 251.730469 189.480469 252.117188 189.441406 252.507812 189.441406 L 274.945312 189.441406 L 273.207031 177.214844 L 252.507812 177.214844 C 252.117188 177.214844 251.730469 177.175781 251.347656 177.097656 C 250.964844 177.023438 250.589844 176.910156 250.230469 176.761719 C 249.871094 176.609375 249.527344 176.429688 249.203125 176.210938 C 248.878906 175.992188 248.578125 175.746094 248.300781 175.472656 C 248.023438 175.195312 247.777344 174.894531 247.5625 174.570312 C 247.34375 174.246094 247.160156 173.902344 247.011719 173.542969 C 246.863281 173.179688 246.75 172.808594 246.671875 172.425781 C 246.597656 172.042969 246.558594 171.65625 246.558594 171.265625 C 246.558594 170.875 246.597656 170.488281 246.671875 170.105469 C 246.75 169.722656 246.863281 169.347656 247.011719 168.988281 C 247.160156 168.628906 247.34375 168.285156 247.5625 167.960938 C 247.777344 167.636719 248.023438 167.335938 248.300781 167.058594 C 248.578125 166.78125 248.878906 166.535156 249.203125 166.320312 C 249.527344 166.101562 249.871094 165.917969 250.230469 165.769531 C 250.589844 165.621094 250.964844 165.507812 251.347656 165.429688 C 251.730469 165.355469 252.117188 165.316406 252.507812 165.316406 L 271.542969 165.316406 L 269.804688 153.148438 L 252.507812 153.148438 C 252.117188 153.148438 251.730469 153.109375 251.347656 153.03125 C 250.964844 152.957031 250.589844 152.84375 250.230469 152.695312 C 249.871094 152.542969 249.527344 152.359375 249.203125 152.144531 C 248.878906 151.925781 248.578125 151.679688 248.300781 151.40625 C 248.023438 151.128906 247.777344 150.828125 247.5625 150.503906 C 247.34375 150.179688 247.160156 149.835938 247.011719 149.472656 C 246.863281 149.113281 246.75 148.742188 246.671875 148.359375 C 246.597656 147.976562 246.558594 147.589844 246.558594 147.199219 C 246.558594 146.808594 246.597656 146.421875 246.671875 146.039062 C 246.75 145.65625 246.863281 145.28125 247.011719 144.921875 C 247.160156 144.5625 247.34375 144.21875 247.5625 143.894531 C 247.777344 143.570312 248.023438 143.269531 248.300781 142.992188 C 248.578125 142.714844 248.878906 142.46875 249.203125 142.253906 C 249.527344 142.035156 249.871094 141.851562 250.230469 141.703125 C 250.589844 141.554688 250.964844 141.441406 251.347656 141.363281 C 251.730469 141.289062 252.117188 141.25 252.507812 141.25 Z M 264.164062 227.605469 C 265.039062 227.609375 265.914062 227.5625 266.785156 227.46875 C 267.652344 227.375 268.515625 227.234375 269.371094 227.050781 C 270.226562 226.863281 271.070312 226.632812 271.902344 226.355469 C 272.730469 226.082031 273.542969 225.761719 274.339844 225.398438 C 275.136719 225.035156 275.910156 224.628906 276.664062 224.183594 C 277.417969 223.738281 278.144531 223.25 278.84375 222.726562 C 279.546875 222.203125 280.21875 221.644531 280.859375 221.046875 C 281.5 220.449219 282.105469 219.824219 282.679688 219.160156 C 283.253906 218.5 283.789062 217.808594 284.289062 217.089844 C 284.789062 216.371094 285.25 215.628906 285.667969 214.859375 C 286.089844 214.09375 286.464844 213.304688 286.800781 212.496094 C 287.136719 211.6875 287.425781 210.863281 287.675781 210.023438 C 287.921875 209.183594 288.121094 208.335938 288.277344 207.472656 C 288.433594 206.613281 288.542969 205.746094 288.605469 204.871094 C 288.667969 204 288.683594 203.125 288.65625 202.25 C 288.625 201.375 288.546875 200.503906 288.421875 199.636719 C 285.542969 179.414062 281.285156 149.496094 278.65625 131.257812 C 278.550781 130.535156 278.417969 129.816406 278.25 129.109375 C 278.082031 128.398438 277.882812 127.695312 277.652344 127.003906 C 277.421875 126.308594 277.160156 125.628906 276.871094 124.960938 C 276.578125 124.289062 276.257812 123.636719 275.910156 122.996094 C 275.558594 122.355469 275.183594 121.730469 274.777344 121.125 C 274.371094 120.515625 273.941406 119.929688 273.484375 119.359375 C 273.023438 118.792969 272.542969 118.246094 272.035156 117.71875 C 271.53125 117.195312 271 116.691406 270.449219 116.214844 C 269.898438 115.734375 269.328125 115.285156 268.734375 114.855469 C 268.144531 114.429688 267.535156 114.03125 266.90625 113.65625 C 266.277344 113.285156 265.636719 112.941406 264.976562 112.625 C 264.320312 112.308594 263.648438 112.023438 262.964844 111.769531 C 262.28125 111.515625 261.585938 111.289062 260.882812 111.097656 C 260.179688 110.90625 259.46875 110.742188 258.75 110.613281 C 258.03125 110.484375 257.308594 110.386719 256.582031 110.320312 C 255.855469 110.257812 255.128906 110.222656 254.398438 110.222656 L 168.515625 110.222656 C 167.714844 110.222656 166.914062 110.261719 166.113281 110.339844 C 165.316406 110.417969 164.523438 110.535156 163.734375 110.691406 C 162.949219 110.847656 162.167969 111.042969 161.402344 111.277344 C 160.632812 111.507812 159.878906 111.777344 159.136719 112.085938 C 158.394531 112.394531 157.671875 112.734375 156.960938 113.113281 C 156.253906 113.492188 155.566406 113.90625 154.898438 114.351562 C 154.230469 114.796875 153.585938 115.273438 152.964844 115.78125 C 152.347656 116.292969 151.753906 116.832031 151.183594 117.398438 C 150.617188 117.964844 150.078125 118.558594 149.570312 119.179688 C 149.058594 119.800781 148.582031 120.445312 148.136719 121.113281 C 147.691406 121.78125 147.277344 122.46875 146.898438 123.175781 C 146.523438 123.882812 146.179688 124.609375 145.871094 125.351562 C 145.566406 126.09375 145.296875 126.847656 145.0625 127.617188 C 144.828125 128.382812 144.636719 129.160156 144.480469 129.949219 C 144.324219 130.734375 144.207031 131.53125 144.128906 132.328125 C 144.046875 133.128906 144.007812 133.929688 144.011719 134.730469 L 144.011719 216.375 C 144.011719 218.667969 144.328125 220.914062 144.960938 223.117188 C 145.59375 225.316406 146.519531 227.390625 147.734375 229.332031 L 147.734375 229.390625 C 150.613281 233.886719 156.726562 241.179688 162.09375 249.617188 C 164.6875 253.164062 166.746094 257 168.269531 261.121094 C 169.796875 265.242188 170.730469 269.492188 171.074219 273.871094 C 170.828125 277.089844 171.121094 280.257812 171.957031 283.375 C 172.792969 286.496094 174.117188 289.386719 175.941406 292.050781 C 176.59375 292.804688 177.300781 293.511719 178.054688 294.164062 C 178.8125 294.816406 179.609375 295.414062 180.453125 295.949219 C 181.292969 296.488281 182.167969 296.960938 183.078125 297.375 C 183.992188 297.785156 184.925781 298.128906 185.886719 298.40625 C 186.84375 298.679688 187.820312 298.886719 188.808594 299.023438 C 189.800781 299.160156 190.792969 299.222656 191.792969 299.214844 C 192.792969 299.207031 193.785156 299.125 194.773438 298.972656 C 195.761719 298.820312 196.730469 298.601562 197.6875 298.308594 C 202.058594 297.328125 206.242188 295.820312 210.234375 293.785156 C 214.226562 291.75 217.902344 289.253906 221.265625 286.292969 C 222.410156 284.859375 223.382812 283.320312 224.179688 281.667969 C 224.980469 280.019531 225.582031 278.300781 225.996094 276.515625 C 226.40625 274.726562 226.617188 272.917969 226.621094 271.085938 C 226.625 269.25 226.425781 267.441406 226.023438 265.652344 L 220.992188 243.046875 C 220.890625 242.589844 220.8125 242.125 220.765625 241.660156 C 220.714844 241.191406 220.691406 240.722656 220.691406 240.25 C 220.695312 239.78125 220.722656 239.3125 220.777344 238.84375 C 220.832031 238.378906 220.914062 237.914062 221.019531 237.457031 C 221.125 237 221.257812 236.546875 221.414062 236.105469 C 221.574219 235.660156 221.753906 235.226562 221.960938 234.804688 C 222.164062 234.378906 222.394531 233.96875 222.644531 233.574219 C 222.894531 233.175781 223.167969 232.792969 223.464844 232.425781 C 223.757812 232.058594 224.070312 231.710938 224.40625 231.378906 C 224.738281 231.046875 225.089844 230.734375 225.457031 230.441406 C 225.824219 230.148438 226.207031 229.875 226.605469 229.625 C 227.007812 229.375 227.417969 229.148438 227.839844 228.945312 C 228.265625 228.742188 228.699219 228.5625 229.144531 228.40625 C 229.585938 228.253906 230.039062 228.121094 230.496094 228.019531 C 230.957031 227.914062 231.417969 227.835938 231.886719 227.78125 C 232.355469 227.730469 232.824219 227.703125 233.292969 227.703125 Z M 264.164062 227.605469 " fill-opacity="1" fill-rule="evenodd"/><path fill="#ffffff" d="M 123.820312 129.769531 L 123.820312 208.0625 C 123.820312 208.5625 123.773438 209.0625 123.675781 209.554688 C 123.578125 210.046875 123.429688 210.523438 123.238281 210.988281 C 123.046875 211.453125 122.8125 211.894531 122.53125 212.3125 C 122.253906 212.726562 121.9375 213.113281 121.582031 213.46875 C 121.226562 213.824219 120.839844 214.140625 120.421875 214.421875 C 120.003906 214.699219 119.5625 214.9375 119.097656 215.128906 C 118.636719 215.320312 118.15625 215.464844 117.664062 215.5625 C 117.171875 215.660156 116.675781 215.710938 116.171875 215.710938 C 115.667969 215.710938 115.171875 215.660156 114.679688 215.5625 C 114.1875 215.464844 113.707031 215.320312 113.246094 215.128906 C 112.78125 214.9375 112.339844 214.699219 111.921875 214.421875 C 111.503906 214.140625 111.117188 213.824219 110.761719 213.46875 C 110.40625 213.113281 110.089844 212.726562 109.8125 212.3125 C 109.53125 211.894531 109.296875 211.453125 109.105469 210.988281 C 108.914062 210.523438 108.769531 210.046875 108.667969 209.554688 C 108.570312 209.0625 108.523438 208.5625 108.523438 208.0625 L 108.523438 129.769531 C 108.523438 129.269531 108.570312 128.769531 108.667969 128.277344 C 108.769531 127.785156 108.914062 127.304688 109.105469 126.84375 C 109.296875 126.378906 109.53125 125.9375 109.8125 125.519531 C 110.089844 125.101562 110.40625 124.714844 110.761719 124.359375 C 111.117188 124.003906 111.503906 123.6875 111.921875 123.410156 C 112.339844 123.128906 112.78125 122.894531 113.246094 122.703125 C 113.707031 122.511719 114.1875 122.367188 114.679688 122.265625 C 115.171875 122.167969 115.667969 122.121094 116.171875 122.121094 C 116.675781 122.121094 117.171875 122.167969 117.664062 122.265625 C 118.15625 122.367188 118.636719 122.511719 119.097656 122.703125 C 119.5625 122.894531 120.003906 123.128906 120.421875 123.410156 C 120.839844 123.6875 121.226562 124.003906 121.582031 124.359375 C 121.9375 124.714844 122.253906 125.101562 122.53125 125.519531 C 122.8125 125.9375 123.046875 126.378906 123.238281 126.84375 C 123.429688 127.304688 123.578125 127.785156 123.675781 128.277344 C 123.773438 128.769531 123.820312 129.269531 123.820312 129.769531 Z M 135.71875 129.769531 C 135.71875 129.128906 135.6875 128.492188 135.625 127.855469 C 135.5625 127.21875 135.46875 126.585938 135.34375 125.957031 C 135.21875 125.328125 135.0625 124.707031 134.875 124.097656 C 134.691406 123.484375 134.476562 122.882812 134.230469 122.289062 C 133.984375 121.699219 133.710938 121.121094 133.410156 120.554688 C 133.109375 119.992188 132.78125 119.441406 132.425781 118.910156 C 132.070312 118.378906 131.6875 117.863281 131.28125 117.371094 C 130.875 116.875 130.445312 116.402344 129.992188 115.949219 C 129.539062 115.496094 129.066406 115.066406 128.570312 114.660156 C 128.078125 114.253906 127.5625 113.875 127.03125 113.519531 C 126.5 113.164062 125.949219 112.832031 125.386719 112.53125 C 124.820312 112.230469 124.242188 111.957031 123.652344 111.710938 C 123.0625 111.464844 122.457031 111.25 121.847656 111.066406 C 121.234375 110.878906 120.613281 110.722656 119.984375 110.597656 C 119.359375 110.472656 118.726562 110.378906 118.089844 110.316406 C 117.449219 110.253906 116.8125 110.222656 116.171875 110.222656 C 115.53125 110.222656 114.894531 110.253906 114.257812 110.316406 C 113.621094 110.378906 112.988281 110.472656 112.359375 110.597656 C 111.730469 110.722656 111.109375 110.878906 110.5 111.066406 C 109.886719 111.25 109.285156 111.464844 108.691406 111.710938 C 108.101562 111.957031 107.523438 112.230469 106.957031 112.53125 C 106.394531 112.832031 105.84375 113.164062 105.3125 113.519531 C 104.78125 113.875 104.265625 114.253906 103.773438 114.660156 C 103.277344 115.066406 102.804688 115.496094 102.351562 115.949219 C 101.898438 116.402344 101.46875 116.875 101.0625 117.371094 C 100.65625 117.863281 100.277344 118.378906 99.921875 118.910156 C 99.566406 119.441406 99.234375 119.992188 98.933594 120.554688 C 98.632812 121.121094 98.359375 121.699219 98.113281 122.289062 C 97.867188 122.882812 97.652344 123.484375 97.46875 124.097656 C 97.28125 124.707031 97.125 125.328125 97 125.957031 C 96.875 126.585938 96.78125 127.21875 96.71875 127.855469 C 96.65625 128.492188 96.625 129.128906 96.625 129.769531 L 96.625 208.0625 C 96.625 208.703125 96.65625 209.339844 96.71875 209.976562 C 96.78125 210.613281 96.875 211.246094 97 211.875 C 97.125 212.503906 97.28125 213.121094 97.46875 213.734375 C 97.652344 214.347656 97.867188 214.949219 98.113281 215.539062 C 98.359375 216.132812 98.632812 216.710938 98.933594 217.273438 C 99.234375 217.839844 99.566406 218.386719 99.921875 218.921875 C 100.277344 219.453125 100.65625 219.964844 101.0625 220.460938 C 101.46875 220.957031 101.898438 221.429688 102.351562 221.882812 C 102.804688 222.335938 103.277344 222.765625 103.773438 223.171875 C 104.265625 223.578125 104.78125 223.957031 105.3125 224.3125 C 105.84375 224.667969 106.394531 224.996094 106.957031 225.300781 C 107.523438 225.601562 108.101562 225.875 108.691406 226.121094 C 109.285156 226.363281 109.886719 226.578125 110.5 226.765625 C 111.109375 226.953125 111.730469 227.105469 112.359375 227.230469 C 112.988281 227.355469 113.621094 227.449219 114.257812 227.511719 C 114.894531 227.574219 115.53125 227.605469 116.171875 227.605469 C 116.8125 227.605469 117.449219 227.574219 118.089844 227.511719 C 118.726562 227.449219 119.359375 227.355469 119.984375 227.230469 C 120.613281 227.105469 121.234375 226.953125 121.847656 226.765625 C 122.457031 226.578125 123.0625 226.363281 123.652344 226.121094 C 124.242188 225.875 124.820312 225.601562 125.386719 225.300781 C 125.949219 224.996094 126.5 224.667969 127.03125 224.3125 C 127.5625 223.957031 128.078125 223.578125 128.570312 223.171875 C 129.066406 222.765625 129.539062 222.335938 129.992188 221.882812 C 130.445312 221.429688 130.875 220.957031 131.28125 220.460938 C 131.6875 219.964844 132.070312 219.453125 132.425781 218.921875 C 132.78125 218.386719 133.109375 217.839844 133.410156 217.273438 C 133.710938 216.710938 133.984375 216.132812 134.230469 215.539062 C 134.476562 214.949219 134.691406 214.347656 134.875 213.734375 C 135.0625 213.121094 135.21875 212.503906 135.34375 211.875 C 135.46875 211.246094 135.5625 210.613281 135.625 209.976562 C 135.6875 209.339844 135.71875 208.703125 135.71875 208.0625 Z M 135.71875 129.769531 " fill-opacity="1" fill-rule="evenodd"/></svg>