<svg width="29" height="19" viewBox="0 0 29 19" fill="none" xmlns="http://www.w3.org/2000/svg">
<path fill-rule="evenodd" clip-rule="evenodd" d="M28.8138 17.1746C24.1728 4.62278 11.1517 4.8149 11.1517 4.8149C11.1517 4.8149 11.2483 3.66218 11.2483 1.70896C11.345 -0.308359 10.5071 -0.404419 9.08892 0.716396C5.73709 3.43821 0 8.78544 0 8.78544C0 8.78544 5.41456 14.1328 8.541 17.2067C10.0558 18.6797 11.0871 19.1919 11.1516 16.4703C11.2804 14.4851 11.1516 12.82 11.1516 12.82C11.1516 12.82 19.1447 11.5071 24.785 15.7339C28.0725 17.8792 28.5237 18.7438 28.8138 19C28.8138 19 29.2328 18.7438 28.8138 17.1747L28.8138 17.1746Z" fill="black"/>
</svg>
