<svg width="21" height="21" viewBox="0 0 21 21" fill="none" xmlns="http://www.w3.org/2000/svg">
<path d="M20.3816 8.45742L18.041 8.05987C17.9085 7.64027 17.7318 7.24288 17.5331 6.84532L18.9021 4.92424C19.1008 4.63713 19.0788 4.23974 18.8359 3.9968L16.9589 2.11977C16.716 1.87686 16.3186 1.83266 16.0314 2.05353L14.1104 3.42257C13.735 3.22387 13.3154 3.0472 12.8958 2.91473L12.5204 0.59625C12.4542 0.242904 12.1671 0 11.8137 0H9.16396C8.81061 0 8.52366 0.242908 8.45726 0.59625L8.05987 2.93689C7.64027 3.06935 7.24288 3.24603 6.84532 3.44473L4.92424 2.07569C4.63713 1.87699 4.23974 1.89902 3.9968 2.14193L2.11977 4.01897C1.87686 4.26187 1.83266 4.65926 2.05353 4.9464L3.42257 6.86749C3.22387 7.24286 3.0472 7.66243 2.91473 8.08203L0.59625 8.4574C0.242904 8.52363 0 8.81074 0 9.1641V11.8139C0 12.1672 0.242908 12.4542 0.59625 12.5206L2.93689 12.918C3.06935 13.3376 3.24602 13.735 3.44473 14.1325L2.07569 16.0536C1.87699 16.3407 1.89902 16.7381 2.14193 16.981L4.01897 18.8581C4.26187 19.101 4.65926 19.1452 4.9464 18.9243L6.86749 17.5553C7.24286 17.754 7.66243 17.9306 8.08203 18.0631L8.47942 20.4038C8.54565 20.7571 8.83277 21 9.18612 21H11.8359C12.1892 21 12.4762 20.7571 12.5426 20.4038L12.918 18.0409C13.3376 17.9084 13.735 17.7318 14.1325 17.5331L16.0536 18.9021C16.3407 19.1008 16.7381 19.0788 16.981 18.8359L18.8581 16.9588C19.101 16.7159 19.1452 16.3185 18.9243 16.0314L17.5553 14.1103C17.754 13.7349 17.9306 13.3154 18.0631 12.8958L20.4038 12.4984C20.7571 12.4321 21 12.145 21 11.7917L20.9998 9.1639C20.9778 8.81071 20.7349 8.5236 20.3816 8.45736L20.3816 8.45742ZM10.4889 14.2649C8.39118 14.2649 6.71284 12.5646 6.71284 10.4889C6.71284 8.39113 8.41318 6.71279 10.4889 6.71279C12.5647 6.71279 14.265 8.39109 14.265 10.4889C14.265 12.5866 12.5867 14.2649 10.4889 14.2649Z" fill="#8B8B8B"/>
</svg>
