<svg xmlns="http://www.w3.org/2000/svg" xmlns:xlink="http://www.w3.org/1999/xlink" width="1024" zoomAndPan="magnify" viewBox="0 0 768 767.999994" height="1024" preserveAspectRatio="xMidYMid meet" version="1.0"><defs><filter x="0%" y="0%" width="100%" height="100%" id="45bfd190a7"><feColorMatrix values="0 0 0 0 1 0 0 0 0 1 0 0 0 0 1 0 0 0 1 0" color-interpolation-filters="sRGB"/></filter><mask id="9d43d8357b"><g filter="url(#45bfd190a7)"><rect x="-76.8" width="921.6" fill="#000000" y="-76.799999" height="921.599993" fill-opacity="0.549"/></g></mask><clipPath id="f2dbc742c8"><path d="M 0.398438 0.398438 L 691.898438 0.398438 L 691.898438 691.898438 L 0.398438 691.898438 Z M 0.398438 0.398438 " clip-rule="nonzero"/></clipPath><clipPath id="e0db326ff5"><rect x="0" width="693" y="0" height="693"/></clipPath><clipPath id="350bb5d423"><path d="M 59.125 59.125 L 708.625 59.125 L 708.625 708.625 L 59.125 708.625 Z M 59.125 59.125 " clip-rule="nonzero"/></clipPath></defs><g mask="url(#9d43d8357b)"><g transform="matrix(1, 0, 0, 1, 38, 38)"><g clip-path="url(#e0db326ff5)"><g clip-path="url(#f2dbc742c8)"><path fill="#ff5757" d="M 346.148438 0.398438 C 155.199219 0.398438 0.398438 155.199219 0.398438 346.148438 C 0.398438 537.101562 155.199219 691.898438 346.148438 691.898438 C 537.101562 691.898438 691.898438 537.101562 691.898438 346.148438 C 691.898438 155.199219 537.101562 0.398438 346.148438 0.398438 " fill-opacity="1" fill-rule="nonzero"/></g></g></g></g><g clip-path="url(#350bb5d423)"><path fill="#fafafa" d="M 383.875 59.125 C 204.800781 59.125 59.125 204.800781 59.125 383.875 C 59.125 562.945312 204.800781 708.625 383.875 708.625 C 562.945312 708.625 708.625 562.945312 708.625 383.875 C 708.625 204.800781 562.945312 59.125 383.875 59.125 Z M 564.21875 620.15625 C 562.917969 618.128906 561.105469 616.449219 558.886719 615.3125 L 487.226562 579.507812 C 480.597656 575.476562 468.6875 546.574219 460.191406 514.722656 C 476.429688 507.792969 506.820312 494.074219 524.464844 481.542969 C 529.769531 477.78125 531.636719 470.773438 528.929688 464.84375 C 528.714844 464.359375 506.035156 413.859375 506.035156 325.691406 C 506.035156 220.605469 460.894531 167.320312 371.832031 167.320312 C 368.257812 167.320312 364.796875 168.753906 362.25 171.269531 L 353.917969 179.605469 C 308.453125 183.234375 261.742188 229.265625 261.742188 325.664062 C 261.742188 413.832031 239.089844 464.332031 238.847656 464.816406 C 236.140625 470.746094 238.007812 477.753906 243.3125 481.515625 C 260.957031 494.046875 291.347656 507.765625 307.585938 514.695312 C 299.085938 546.519531 287.289062 575.394531 281.308594 579.050781 L 208.886719 615.257812 C 206.667969 616.367188 204.828125 618.046875 203.53125 620.074219 C 132.382812 565.625 86.1875 480.109375 86.1875 383.792969 C 86.1875 219.660156 219.742188 86.105469 383.875 86.105469 C 548.007812 86.105469 681.5625 219.660156 681.5625 383.792969 C 681.5625 480.191406 635.367188 565.707031 564.21875 620.15625 Z M 564.21875 620.15625 " fill-opacity="1" fill-rule="nonzero"/></g></svg>