<svg xmlns="http://www.w3.org/2000/svg" xmlns:xlink="http://www.w3.org/1999/xlink" width="1024" zoomAndPan="magnify" viewBox="0 0 768 767.999994" height="1024" preserveAspectRatio="xMidYMid meet" version="1.0"><defs><g/><clipPath id="b06ed04321"><path d="M 65.027344 308.605469 L 703.277344 308.605469 L 703.277344 445 L 65.027344 445 Z M 65.027344 308.605469 " clip-rule="nonzero"/></clipPath></defs><rect x="-76.8" width="921.6" fill="#ffffff" y="-76.799999" height="921.599993" fill-opacity="1"/><rect x="-76.8" width="921.6" fill="#ffffff" y="-76.799999" height="921.599993" fill-opacity="1"/><g clip-path="url(#b06ed04321)"><path fill="#ffdcba" d="M 589.65625 332.914062 C 599.121094 332.4375 608.535156 331.714844 617.980469 331.136719 C 636.917969 330.09375 655.660156 328.363281 674.488281 326.921875 C 673.570312 331.75 672.703125 336.769531 675.429688 340.925781 C 675.429688 340.925781 678.34375 340.546875 681.949219 339.851562 C 685.5625 339.195312 689.902344 338.414062 692.792969 337.890625 C 717.257812 345.019531 713.890625 361.785156 703.152344 375.285156 C 700.359375 378.136719 697.207031 381.351562 693.621094 384.640625 C 690.601562 384.707031 687.582031 384.773438 684.59375 384.839844 C 670.984375 385.210938 657.578125 385.863281 644.058594 387 C 630.617188 387.820312 617.121094 388.910156 603.449219 390.125 C 576.148438 392.246094 568.066406 394.644531 538.554688 395.015625 C 497.152344 394.367188 579.667969 391.796875 538.554688 395.015625 C 587.375 393.304688 508.007812 398.523438 557.675781 395.8125 C 570.105469 395.191406 562.597656 394.566406 574.949219 393.949219 C 587.332031 393.5 599.660156 393.050781 611.910156 392.605469 C 624.210938 392.160156 636.386719 392.113281 648.59375 391.921875 C 660.835938 391.632812 672.929688 391.722656 685.078125 391.839844 C 675.925781 398.714844 664.835938 404.539062 651.386719 406.484375 C 619.316406 408.582031 587.691406 410.652344 556.335938 412.703125 C 556.191406 410.402344 531.824219 414.59375 510.277344 415.972656 C 488.742188 417.199219 467.527344 412.972656 446.167969 413.46875 C 403.4375 414.597656 318.363281 427.824219 317.773438 429.347656 C 317.554688 429.367188 317.347656 429.382812 317.148438 429.402344 C 317.347656 429.382812 317.554688 429.367188 317.773438 429.347656 C 317.242188 430.683594 317.644531 431.660156 323.128906 431.277344 C 317.644531 431.660156 317.242188 430.683594 317.773438 429.347656 C 404.421875 421.007812 465.644531 417.046875 552.769531 412.96875 C 485.199219 417.480469 439.070312 422.800781 372.609375 428.3125 C 306.160156 433.789062 239.332031 439.335938 170.410156 443.5625 C 164.542969 443.917969 152.78125 444.632812 146.90625 444.992188 C 123.152344 439.542969 99.542969 438.632812 76.09375 439.972656 C 81.550781 428.210938 57.261719 406.722656 104.394531 408.582031 C 104.3125 406.300781 104.148438 401.726562 104.066406 399.445312 C 80.339844 395.105469 64.007812 385.144531 58.804688 374.890625 C 56.410156 369.792969 56.710938 364.488281 61.007812 359.769531 C 65.476562 355.015625 72.929688 350.878906 84.609375 347.917969 C 137.019531 335.757812 207.660156 340.640625 271.875 331.734375 C 318.632812 326.328125 365.328125 320.695312 412.285156 321.632812 C 476.929688 323.5 526.976562 315.269531 591.433594 317.316406 C 603.117188 317.125 618.953125 314.03125 633.386719 311.742188 C 647.75 309.300781 660.570312 307.335938 666.648438 309.960938 C 675.195312 312.046875 676.015625 316.832031 675.269531 322.402344 C 656.242188 324.6875 637.324219 327.304688 618.238281 329.117188 C 608.71875 330.078125 599.242188 331.171875 589.730469 331.992188 C 580.21875 332.777344 570.734375 333.554688 561.273438 334.335938 " fill-opacity="1" fill-rule="nonzero"/></g><g fill="#222222" fill-opacity="1"><g transform="translate(109.450886, 407.249522)"><g><path d="M 56.304688 -46.09375 C 72.804688 -53.292969 89.171875 -72.675781 86.816406 -91.53125 C 86.160156 -97.816406 81.578125 -105.410156 74.246094 -104.230469 C 70.316406 -103.578125 66.519531 -99.386719 63.769531 -96.769531 C 60.234375 -93.230469 56.828125 -89.433594 53.6875 -85.507812 C 47.140625 -77.519531 41.117188 -68.875 35.617188 -60.101562 C 33.128906 -55.914062 30.773438 -51.59375 28.546875 -47.269531 C 27.238281 -44.914062 26.058594 -42.558594 25.011719 -40.070312 C 24.09375 -38.105469 22.261719 -35.484375 22 -33.261719 C 22.390625 -35.617188 24.878906 -39.414062 26.058594 -41.769531 C 27.628906 -45.042969 29.332031 -48.316406 31.035156 -51.59375 C 34.699219 -58.007812 38.628906 -64.292969 42.820312 -70.316406 C 31.6875 -53.949219 22.261719 -35.878906 16.628906 -16.761719 L 17.152344 -21.738281 C 17.152344 -22.128906 17.808594 -28.414062 17.675781 -28.285156 C 17.414062 -28.023438 17.285156 -27.761719 17.152344 -27.5 C 17.808594 -31.6875 19.511719 -36.402344 20.6875 -40.59375 C 22.128906 -45.832031 23.175781 -51.066406 24.617188 -56.304688 C 26.1875 -61.804688 28.152344 -67.042969 30.378906 -72.28125 C 31.035156 -73.460938 37.1875 -86.816406 37.84375 -87.207031 C 36.925781 -86.816406 31.558594 -75.6875 30.25 -72.9375 C 33.390625 -80.269531 37.058594 -87.339844 41.769531 -93.757812 C 41.378906 -93.101562 40.855469 -92.183594 40.984375 -92.183594 C 41.378906 -92.054688 44.78125 -96.503906 44.519531 -96.636719 C 44.257812 -96.636719 43.996094 -96.503906 43.867188 -96.375 C 44.652344 -97.292969 45.4375 -97.554688 45.4375 -99.125 C 45.304688 -101.21875 43.34375 -104.101562 41.378906 -104.886719 C 37.058594 -106.457031 34.175781 -100.828125 31.820312 -98.992188 C 28.023438 -95.851562 26.320312 -91.53125 23.960938 -87.207031 C 23.4375 -86.03125 17.152344 -72.148438 17.546875 -72.019531 L 16.628906 -69.136719 C 16.5 -69.269531 17.023438 -70.054688 16.761719 -70.1875 C 15.453125 -70.449219 12.179688 -58.792969 11.914062 -57.878906 C 11.523438 -55.257812 10.867188 -52.902344 10.082031 -50.28125 C 9.691406 -48.972656 9.167969 -47.53125 8.902344 -46.09375 C 8.773438 -45.960938 8.378906 -42.558594 8.902344 -43.867188 C 8.902344 -43.472656 8.773438 -43.210938 8.773438 -42.949219 C 8.640625 -43.082031 8.640625 -43.210938 8.640625 -43.34375 C 8.25 -43.210938 7.855469 -39.152344 7.726562 -38.628906 C 6.941406 -36.535156 6.15625 -34.570312 5.628906 -32.34375 C 4.320312 -26.972656 4.058594 -21.34375 3.796875 -15.84375 C 3.667969 -11.261719 2.617188 -4.976562 4.582031 -0.65625 C 6.285156 3.535156 11.652344 6.285156 15.320312 2.355469 L 15.714844 3.144531 C 16.628906 -2.09375 17.675781 -7.203125 19.25 -12.308594 C 22.390625 -22.261719 26.710938 -31.425781 30.773438 -40.984375 C 32.082031 -44.128906 34.570312 -46.617188 36.402344 -49.628906 C 39.414062 -54.734375 42.425781 -59.710938 45.699219 -64.6875 C 51.328125 -73.460938 57.746094 -82.234375 65.210938 -89.566406 C 66.652344 -91.007812 69.398438 -94.410156 71.757812 -93.757812 C 75.292969 -92.839844 73.589844 -84.851562 71.886719 -80.921875 L 71.757812 -80.53125 L 71.625 -80.398438 L 71.625 -80.269531 C 70.578125 -77.386719 69.136719 -74.636719 67.699219 -71.886719 C 67.699219 -72.019531 68.746094 -74.375 68.746094 -74.375 C 68.089844 -74.507812 63.902344 -67.304688 63.246094 -66.386719 C 60.628906 -62.851562 57.878906 -59.449219 54.734375 -56.4375 C 51.855469 -53.554688 48.710938 -51.066406 45.4375 -48.710938 C 43.472656 -47.53125 40.722656 -46.878906 39.019531 -45.570312 C 35.222656 -42.558594 44.78125 -36.402344 48.1875 -37.320312 C 51.066406 -38.105469 53.164062 -39.808594 56.4375 -39.414062 C 58.007812 -39.152344 59.449219 -38.628906 60.628906 -37.449219 C 60.757812 -37.449219 62.328125 -35.617188 62.722656 -34.960938 L 62.722656 -35.355469 C 63.375 -33.914062 63.640625 -32.472656 63.769531 -31.035156 C 63.640625 -31.6875 63.113281 -32.605469 62.984375 -33.523438 C 62.984375 -32.082031 63.507812 -29.59375 63.769531 -29.460938 C 64.554688 -28.675781 62.984375 -23.4375 62.199219 -21.738281 C 60.628906 -18.332031 58.269531 -15.191406 55.78125 -12.308594 C 50.414062 -6.285156 43.867188 -1.441406 36.925781 2.75 C 29.59375 7.203125 21.605469 11 13.226562 13.488281 C 9.691406 14.664062 6.023438 15.191406 2.226562 15.84375 C 0.65625 16.105469 -0.785156 15.976562 0.523438 17.546875 C 1.832031 19.378906 7.464844 19.902344 9.558594 20.164062 C 13.488281 20.949219 17.414062 20.6875 21.476562 19.902344 C 28.023438 18.59375 34.832031 16.238281 40.855469 13.488281 C 55.257812 7.070312 69.53125 -3.796875 74.507812 -19.25 C 75.949219 -23.699219 76.863281 -28.9375 75.949219 -33.523438 C 73.984375 -42.820312 65.078125 -46.878906 56.304688 -46.09375 Z M 62.066406 -13.355469 C 61.152344 -10.867188 58.925781 -8.25 56.960938 -6.546875 C 55.128906 -4.976562 53.164062 -4.191406 51.59375 -3.011719 L 56.042969 -7.726562 C 59.316406 -11.523438 61.804688 -15.058594 64.03125 -19.640625 L 64.6875 -21.214844 C 64.425781 -18.988281 62.984375 -15.453125 62.066406 -13.355469 Z M 78.304688 -69.136719 C 79.613281 -71.363281 81.578125 -74.246094 82.886719 -77.125 C 81.578125 -72.804688 80.007812 -69.269531 76.734375 -65.601562 C 75.554688 -64.425781 74.507812 -63.113281 73.328125 -61.804688 C 75.160156 -64.164062 76.863281 -66.519531 78.304688 -69.136719 Z M 9.429688 -28.546875 C 8.640625 -26.710938 8.25 -23.832031 8.378906 -21.867188 C 8.117188 -24.75 8.511719 -28.675781 9.296875 -31.425781 C 9.691406 -32.605469 10.605469 -34.046875 11.261719 -35.355469 C 11.261719 -34.699219 11.261719 -33.914062 11.128906 -33.128906 C 10.867188 -31.425781 10.082031 -29.984375 9.429688 -28.546875 Z M 27.890625 -67.175781 C 27.890625 -67.4375 28.023438 -67.699219 28.152344 -67.960938 Z M 53.03125 -84.066406 L 52.117188 -83.148438 Z M 29.984375 -72.410156 C 29.984375 -72.542969 30.117188 -72.804688 30.25 -72.9375 Z M 29.984375 -72.410156 "/></g></g></g><g fill="#222222" fill-opacity="1"><g transform="translate(193.647782, 407.249522)"><g><path d="M 52.378906 -33.390625 C 50.542969 -31.425781 49.367188 -28.152344 47.925781 -25.796875 C 45.699219 -22 43.472656 -18.332031 41.117188 -14.664062 C 36.664062 -7.59375 32.210938 -0.394531 26.84375 6.023438 C 24.617188 8.773438 19.902344 15.453125 15.453125 14.925781 C 12.179688 14.402344 12.179688 8.773438 12.179688 6.285156 C 12.179688 4.191406 12.308594 2.09375 12.570312 0.132812 C 12.703125 -1.046875 13.75 -4.976562 13.09375 -6.023438 L 12.046875 -2.09375 C 12.179688 -3.667969 12.441406 -5.367188 12.832031 -6.941406 C 12.703125 -7.203125 13.878906 -10.867188 14.140625 -12.046875 C 14.796875 -14.664062 15.453125 -17.285156 16.238281 -19.902344 C 16.890625 -22.523438 17.546875 -25.011719 18.332031 -27.5 C 18.988281 -29.855469 19.902344 -31.035156 21.34375 -32.867188 C 27.238281 -40.199219 32.605469 -48.1875 37.582031 -56.175781 C 39.414062 -59.1875 40.59375 -61.804688 42.820312 -64.292969 C 46.09375 -67.699219 48.316406 -72.804688 50.414062 -76.996094 C 53.949219 -83.804688 58.664062 -93.230469 57.878906 -101.21875 L 57.878906 -101.875 L 57.746094 -102.003906 C 56.960938 -107.113281 52.246094 -113.136719 46.484375 -111.300781 C 43.472656 -110.386719 41.246094 -107.242188 39.414062 -105.015625 L 36.402344 -100.957031 C 35.746094 -100.171875 34.832031 -98.207031 34.175781 -97.160156 L 34.308594 -97.292969 L 30.117188 -90.089844 L 31.164062 -92.316406 C 30.511719 -92.445312 27.628906 -86.816406 27.238281 -86.160156 C 25.796875 -83.671875 24.488281 -81.183594 23.308594 -78.699219 C 20.6875 -73.460938 18.070312 -68.089844 16.367188 -62.460938 C 14.535156 -56.828125 12.441406 -51.328125 10.476562 -45.699219 C 9.429688 -42.6875 8.378906 -39.546875 7.464844 -36.535156 C 6.679688 -34.046875 4.84375 -29.984375 5.238281 -27.367188 L 5.628906 -27.367188 C 5.238281 -26.449219 4.976562 -25.535156 4.714844 -24.617188 C 4.84375 -25.402344 4.84375 -26.320312 4.976562 -26.582031 C 4.320312 -25.664062 4.453125 -22.523438 4.320312 -22.261719 C 2.617188 -15.191406 0.65625 -8.117188 0.132812 -0.785156 C -0.261719 6.15625 -0.261719 15.320312 5.238281 20.425781 C 11.390625 26.058594 18.464844 22.261719 23.570312 17.414062 C 29.59375 11.523438 34.699219 4.582031 39.414062 -2.226562 C 43.734375 -8.511719 47.140625 -15.191406 51.066406 -21.476562 C 52.640625 -24.09375 54.339844 -26.710938 55.128906 -29.59375 C 55.652344 -31.6875 55.390625 -36.535156 52.378906 -33.390625 Z M 36.007812 -80.269531 C 38.628906 -86.554688 41.246094 -92.96875 44.914062 -98.863281 C 45.832031 -100.304688 51.722656 -108.160156 51.460938 -101.21875 L 51.460938 -101.089844 C 51.199219 -93.757812 46.484375 -86.03125 43.34375 -79.746094 L 37.84375 -69.53125 C 36.007812 -66.386719 32.867188 -62.460938 31.820312 -59.054688 C 32.605469 -61.152344 34.960938 -64.164062 36.140625 -66.125 C 38.105469 -69.398438 39.808594 -72.675781 41.640625 -75.949219 C 44.652344 -81.710938 47.925781 -87.734375 50.152344 -94.019531 C 44.257812 -76.472656 33.261719 -60.101562 23.570312 -44.519531 C 27.367188 -56.042969 31.164062 -68.613281 36.007812 -80.269531 Z M 31.820312 -89.433594 C 33.128906 -91.921875 35.484375 -94.019531 36.796875 -96.375 C 34.046875 -90.875 30.640625 -85.898438 27.761719 -80.660156 C 27.761719 -80.792969 27.761719 -81.054688 27.890625 -81.183594 C 29.070312 -84.066406 30.378906 -86.683594 31.820312 -89.433594 Z M 7.070312 -21.738281 C 6.941406 -21.476562 6.941406 -21.34375 6.941406 -21.34375 C 5.367188 -17.675781 5.238281 -12.703125 4.453125 -8.773438 C 4.320312 -7.855469 4.058594 -7.070312 4.058594 -6.15625 L 4.058594 -6.546875 L 3.667969 -2.355469 C 3.929688 -7.070312 4.453125 -11.914062 5.367188 -16.5 L 5.367188 -16.367188 C 5.761719 -19.378906 6.417969 -22.128906 6.941406 -22.128906 C 7.203125 -22.261719 7.203125 -21.867188 7.070312 -21.738281 Z M 7.070312 -21.738281 "/></g></g></g><g fill="#222222" fill-opacity="1"><g transform="translate(240.001906, 407.249522)"><g><path d="M 66.652344 -31.558594 C 66.519531 -34.4375 64.164062 -31.949219 63.375 -30.902344 C 61.675781 -28.414062 60.101562 -25.796875 58.53125 -23.308594 C 54.996094 -17.9375 51.460938 -12.570312 47.402344 -7.464844 C 33.914062 9.167969 43.34375 -20.425781 42.292969 -20.164062 C 41.769531 -20.035156 41.378906 -18.070312 41.246094 -17.675781 C 42.292969 -22.390625 44.257812 -28.023438 46.746094 -32.605469 C 48.1875 -35.484375 49.890625 -37.84375 47.269531 -40.984375 C 42.425781 -46.878906 36.796875 -41.507812 33.652344 -37.449219 C 32.34375 -42.425781 29.722656 -49.757812 23.308594 -49.757812 C 20.425781 -49.757812 18.726562 -48.316406 16.761719 -46.617188 C 15.582031 -45.832031 14.664062 -45.699219 13.617188 -44.78125 C 11.914062 -43.605469 10.738281 -41.769531 9.558594 -40.199219 C 5.105469 -33.652344 1.964844 -25.402344 0.523438 -17.808594 C -0.132812 -14.140625 -0.394531 -10.082031 0.65625 -6.417969 C 1.308594 -4.320312 3.667969 0.394531 6.679688 0 C 6.808594 0 6.546875 -0.132812 6.15625 -0.394531 C 7.988281 0.132812 10.082031 -0.132812 11.652344 -1.179688 C 11.785156 -0.917969 10.214844 -0.261719 10.214844 -0.261719 C 11.652344 1.964844 22.390625 -11 23.175781 -12.179688 C 24.878906 -14.535156 26.058594 -17.023438 27.628906 -19.511719 C 28.808594 -21.34375 30.640625 -23.699219 31.949219 -25.664062 C 31.820312 -24.75 31.820312 -23.570312 31.820312 -23.570312 C 29.460938 -16.105469 27.238281 -7.988281 30.378906 -0.261719 C 31.820312 3.667969 35.355469 7.332031 39.808594 6.546875 C 43.734375 5.890625 47.007812 2.09375 49.367188 -0.917969 C 52.246094 -4.320312 54.734375 -8.117188 57.222656 -12.046875 C 59.316406 -15.582031 61.28125 -19.117188 62.984375 -23.046875 C 64.03125 -25.535156 66.914062 -28.546875 66.652344 -31.558594 Z M 29.070312 -30.640625 C 28.414062 -29.722656 27.761719 -28.808594 27.238281 -27.890625 L 23.832031 -23.046875 C 21.605469 -19.773438 19.25 -16.628906 16.761719 -13.617188 C 16.105469 -12.703125 12.964844 -8.640625 11.652344 -9.035156 C 9.691406 -9.691406 11.785156 -16.5 12.046875 -17.546875 C 12.441406 -19.378906 19.378906 -39.546875 21.214844 -39.9375 C 18.855469 -40.070312 11.261719 -16.367188 10.867188 -14.402344 C 11.914062 -20.820312 14.273438 -27.105469 16.890625 -32.996094 C 18.332031 -36.007812 21.605469 -43.996094 25.925781 -43.996094 C 28.285156 -43.996094 28.808594 -39.152344 29.199219 -37.582031 C 29.070312 -37.84375 27.890625 -41.640625 27.761719 -41.507812 C 27.105469 -40.984375 29.722656 -33.785156 29.722656 -32.734375 C 29.722656 -31.6875 29.722656 -31.6875 29.070312 -30.640625 Z M 32.082031 -24.226562 C 32.082031 -24.226562 32.472656 -26.058594 32.605469 -26.449219 L 33.261719 -27.367188 Z M 30.117188 -32.34375 L 30.117188 -33.652344 C 30.511719 -33.128906 30.511719 -32.734375 30.117188 -32.34375 Z M 30.117188 -32.34375 "/></g></g></g><g fill="#222222" fill-opacity="1"><g transform="translate(297.093428, 407.249522)"><g><path d="M 66.519531 -32.082031 L 66.519531 -32.210938 L 66.386719 -32.210938 C 64.816406 -34.4375 62.460938 -30.902344 60.890625 -29.722656 C 57.484375 -26.972656 53.949219 -24.75 50.28125 -22.390625 C 50.414062 -23.046875 50.414062 -30.117188 50.019531 -29.855469 C 49.757812 -29.460938 49.757812 -29.070312 49.757812 -28.675781 C 49.496094 -32.867188 48.84375 -38.234375 43.734375 -39.808594 C 41.769531 -40.460938 39.9375 -39.9375 38.105469 -39.152344 C 32.996094 -36.796875 28.675781 -31.820312 25.011719 -27.890625 C 21.867188 -24.488281 18.988281 -20.820312 16.367188 -17.023438 C 17.808594 -18.855469 19.378906 -20.558594 20.6875 -22 C 17.808594 -18.332031 15.058594 -14.402344 12.964844 -10.214844 L 13.488281 -12.308594 L 13.226562 -11.652344 C 14.273438 -18.726562 15.582031 -25.796875 17.152344 -32.734375 C 17.808594 -36.007812 18.203125 -40.855469 19.902344 -43.734375 C 21.214844 -46.09375 25.273438 -46.355469 26.710938 -48.710938 C 26.710938 -48.710938 26.320312 -48.449219 25.796875 -48.1875 C 27.628906 -49.628906 29.332031 -51.199219 31.035156 -52.640625 C 31.035156 -52.507812 29.722656 -51.199219 29.722656 -51.199219 C 30.640625 -50.542969 37.972656 -58.269531 38.628906 -59.054688 C 41.769531 -62.328125 44.78125 -65.863281 47.140625 -69.925781 C 49.234375 -73.589844 51.59375 -77.125 53.554688 -80.792969 C 54.867188 -82.886719 55.914062 -84.984375 56.960938 -87.207031 C 57.617188 -88.78125 59.449219 -92.054688 59.054688 -93.886719 C 58.925781 -94.019531 58.792969 -94.019531 58.664062 -93.886719 L 59.449219 -97.03125 C 59.449219 -97.03125 59.1875 -94.542969 59.054688 -94.410156 C 59.710938 -94.933594 59.578125 -97.683594 59.578125 -97.683594 C 61.152344 -105.148438 61.152344 -120.074219 50.542969 -120.597656 C 45.042969 -120.730469 40.59375 -115.753906 37.449219 -111.957031 C 33.785156 -107.375 30.640625 -102.265625 27.890625 -97.03125 C 22.785156 -87.996094 18.855469 -78.304688 14.925781 -68.746094 C 10.476562 -57.746094 6.546875 -46.355469 3.929688 -34.832031 C 2.226562 -28.023438 0.917969 -21.214844 0.394531 -14.273438 C 0.261719 -12.570312 -0.917969 -3.273438 1.441406 -2.355469 C 1.441406 -2.226562 1.441406 -2.75 1.308594 -3.535156 C 1.441406 -2.878906 1.703125 -2.488281 1.964844 -1.964844 C 1.832031 -1.964844 2.617188 0 2.617188 0 C 3.273438 1.179688 4.191406 2.355469 5.367188 3.144531 C 7.59375 4.714844 10.605469 5.5 12.179688 2.878906 C 13.488281 0.785156 14.011719 -2.75 15.191406 -5.105469 C 15.582031 -6.15625 16.105469 -7.203125 16.628906 -8.25 C 16.5 -8.902344 16.628906 -9.429688 17.152344 -9.820312 C 17.414062 -9.691406 17.675781 -9.820312 18.070312 -10.082031 C 20.035156 -12.308594 21.214844 -15.320312 22.785156 -17.9375 C 23.4375 -18.988281 31.949219 -30.25 32.996094 -30.773438 C 32.867188 -30.773438 32.734375 -30.773438 32.605469 -30.640625 C 33.390625 -31.425781 34.046875 -31.949219 34.960938 -32.605469 C 35.09375 -32.34375 34.308594 -31.949219 34.4375 -31.820312 C 34.4375 -31.820312 39.152344 -33.523438 39.675781 -33.523438 C 41.378906 -33.128906 41.117188 -30.378906 40.984375 -29.070312 C 40.722656 -27.105469 39.808594 -25.273438 38.890625 -23.570312 C 38.367188 -22.523438 37.449219 -21.34375 37.1875 -20.296875 C 37.1875 -20.164062 36.402344 -18.070312 37.1875 -18.988281 L 36.796875 -18.332031 C 36.402344 -17.675781 33.914062 -14.402344 33.390625 -14.011719 C 31.164062 -11.914062 29.460938 -9.429688 27.367188 -7.332031 C 24.75 -4.714844 18.855469 -3.535156 22.785156 1.308594 C 29.855469 9.953125 40.722656 -3.667969 44.519531 -9.167969 C 46.617188 -12.308594 49.234375 -15.058594 51.460938 -17.675781 C 52.246094 -18.59375 53.6875 -19.773438 54.734375 -20.425781 C 55.128906 -20.6875 55.78125 -20.6875 56.175781 -21.082031 C 57.222656 -22.128906 57.351562 -22.652344 58.269531 -23.570312 C 59.972656 -25.273438 62.851562 -25.796875 64.425781 -27.761719 C 64.6875 -28.152344 64.6875 -28.414062 64.292969 -28.808594 C 64.425781 -29.070312 64.6875 -29.070312 64.949219 -28.9375 L 65.734375 -29.332031 C 66.386719 -30.25 67.304688 -30.773438 66.519531 -32.082031 Z M 51.855469 -114.707031 C 56.042969 -114.707031 55.519531 -103.707031 55.390625 -101.351562 C 55.128906 -97.554688 54.210938 -93.757812 52.902344 -90.21875 C 51.984375 -87.46875 50.9375 -83.28125 49.234375 -81.054688 C 45.832031 -76.601562 42.03125 -71.496094 38.367188 -66.914062 C 33.652344 -61.019531 28.023438 -56.042969 22.128906 -51.328125 C 24.488281 -59.1875 27.238281 -67.042969 30.25 -74.769531 C 31.035156 -76.601562 38.628906 -96.503906 39.675781 -97.421875 C 39.414062 -97.292969 39.152344 -97.03125 38.890625 -96.636719 C 41.117188 -101.480469 43.472656 -106.328125 46.878906 -110.648438 L 45.175781 -107.503906 C 46.484375 -109.078125 51.59375 -114.835938 51.855469 -114.445312 C 51.722656 -114.707031 50.804688 -114.445312 50.414062 -114.183594 C 50.804688 -114.574219 51.328125 -114.707031 51.855469 -114.707031 Z M 26.058594 -90.746094 C 29.070312 -96.503906 32.210938 -101.875 36.273438 -107.113281 C 38.890625 -110.648438 42.6875 -114.835938 47.402344 -116.410156 C 42.820312 -114.835938 39.675781 -110.777344 36.925781 -106.980469 C 33.128906 -101.742188 29.984375 -96.242188 26.710938 -90.613281 C 21.738281 -82.101562 17.808594 -73.066406 14.402344 -64.03125 C 17.675781 -73.066406 21.476562 -82.101562 26.058594 -90.746094 Z M 34.699219 -12.832031 C 32.472656 -9.820312 29.199219 -6.023438 25.925781 -4.191406 C 27.628906 -5.238281 28.9375 -7.203125 30.640625 -9.167969 C 32.996094 -12.179688 35.222656 -15.191406 37.449219 -18.332031 C 38.496094 -19.773438 41.507812 -25.140625 42.425781 -29.332031 C 41.507812 -23.4375 37.84375 -17.675781 34.699219 -12.832031 Z M 21.476562 -50.804688 L 21.476562 -51.066406 L 21.605469 -51.328125 C 21.605469 -51.460938 21.738281 -51.59375 21.738281 -51.855469 C 21.738281 -51.984375 21.738281 -52.117188 21.867188 -52.246094 L 21.867188 -52.378906 L 23.570312 -57.746094 L 22.914062 -55.390625 C 22.652344 -54.339844 22.261719 -51.460938 21.476562 -50.804688 Z M 27.367188 -68.484375 C 29.460938 -73.984375 31.558594 -79.484375 33.785156 -84.851562 Z M 13.617188 -12.441406 L 16.367188 -17.023438 C 15.320312 -15.582031 14.273438 -14.011719 13.617188 -12.441406 Z M 21.476562 -50.804688 L 21.476562 -51.066406 L 21.605469 -51.199219 C 21.605469 -51.066406 21.476562 -50.9375 21.476562 -50.804688 Z M 24.488281 -26.710938 C 24.488281 -26.582031 24.355469 -26.582031 24.355469 -26.582031 Z M 24.488281 -26.710938 "/></g></g></g><g fill="#222222" fill-opacity="1"><g transform="translate(354.315894, 407.249522)"><g><path d="M 52.378906 -33.390625 C 50.542969 -31.425781 49.367188 -28.152344 47.925781 -25.796875 C 45.699219 -22 43.472656 -18.332031 41.117188 -14.664062 C 36.664062 -7.59375 32.210938 -0.394531 26.84375 6.023438 C 24.617188 8.773438 19.902344 15.453125 15.453125 14.925781 C 12.179688 14.402344 12.179688 8.773438 12.179688 6.285156 C 12.179688 4.191406 12.308594 2.09375 12.570312 0.132812 C 12.703125 -1.046875 13.75 -4.976562 13.09375 -6.023438 L 12.046875 -2.09375 C 12.179688 -3.667969 12.441406 -5.367188 12.832031 -6.941406 C 12.703125 -7.203125 13.878906 -10.867188 14.140625 -12.046875 C 14.796875 -14.664062 15.453125 -17.285156 16.238281 -19.902344 C 16.890625 -22.523438 17.546875 -25.011719 18.332031 -27.5 C 18.988281 -29.855469 19.902344 -31.035156 21.34375 -32.867188 C 27.238281 -40.199219 32.605469 -48.1875 37.582031 -56.175781 C 39.414062 -59.1875 40.59375 -61.804688 42.820312 -64.292969 C 46.09375 -67.699219 48.316406 -72.804688 50.414062 -76.996094 C 53.949219 -83.804688 58.664062 -93.230469 57.878906 -101.21875 L 57.878906 -101.875 L 57.746094 -102.003906 C 56.960938 -107.113281 52.246094 -113.136719 46.484375 -111.300781 C 43.472656 -110.386719 41.246094 -107.242188 39.414062 -105.015625 L 36.402344 -100.957031 C 35.746094 -100.171875 34.832031 -98.207031 34.175781 -97.160156 L 34.308594 -97.292969 L 30.117188 -90.089844 L 31.164062 -92.316406 C 30.511719 -92.445312 27.628906 -86.816406 27.238281 -86.160156 C 25.796875 -83.671875 24.488281 -81.183594 23.308594 -78.699219 C 20.6875 -73.460938 18.070312 -68.089844 16.367188 -62.460938 C 14.535156 -56.828125 12.441406 -51.328125 10.476562 -45.699219 C 9.429688 -42.6875 8.378906 -39.546875 7.464844 -36.535156 C 6.679688 -34.046875 4.84375 -29.984375 5.238281 -27.367188 L 5.628906 -27.367188 C 5.238281 -26.449219 4.976562 -25.535156 4.714844 -24.617188 C 4.84375 -25.402344 4.84375 -26.320312 4.976562 -26.582031 C 4.320312 -25.664062 4.453125 -22.523438 4.320312 -22.261719 C 2.617188 -15.191406 0.65625 -8.117188 0.132812 -0.785156 C -0.261719 6.15625 -0.261719 15.320312 5.238281 20.425781 C 11.390625 26.058594 18.464844 22.261719 23.570312 17.414062 C 29.59375 11.523438 34.699219 4.582031 39.414062 -2.226562 C 43.734375 -8.511719 47.140625 -15.191406 51.066406 -21.476562 C 52.640625 -24.09375 54.339844 -26.710938 55.128906 -29.59375 C 55.652344 -31.6875 55.390625 -36.535156 52.378906 -33.390625 Z M 36.007812 -80.269531 C 38.628906 -86.554688 41.246094 -92.96875 44.914062 -98.863281 C 45.832031 -100.304688 51.722656 -108.160156 51.460938 -101.21875 L 51.460938 -101.089844 C 51.199219 -93.757812 46.484375 -86.03125 43.34375 -79.746094 L 37.84375 -69.53125 C 36.007812 -66.386719 32.867188 -62.460938 31.820312 -59.054688 C 32.605469 -61.152344 34.960938 -64.164062 36.140625 -66.125 C 38.105469 -69.398438 39.808594 -72.675781 41.640625 -75.949219 C 44.652344 -81.710938 47.925781 -87.734375 50.152344 -94.019531 C 44.257812 -76.472656 33.261719 -60.101562 23.570312 -44.519531 C 27.367188 -56.042969 31.164062 -68.613281 36.007812 -80.269531 Z M 31.820312 -89.433594 C 33.128906 -91.921875 35.484375 -94.019531 36.796875 -96.375 C 34.046875 -90.875 30.640625 -85.898438 27.761719 -80.660156 C 27.761719 -80.792969 27.761719 -81.054688 27.890625 -81.183594 C 29.070312 -84.066406 30.378906 -86.683594 31.820312 -89.433594 Z M 7.070312 -21.738281 C 6.941406 -21.476562 6.941406 -21.34375 6.941406 -21.34375 C 5.367188 -17.675781 5.238281 -12.703125 4.453125 -8.773438 C 4.320312 -7.855469 4.058594 -7.070312 4.058594 -6.15625 L 4.058594 -6.546875 L 3.667969 -2.355469 C 3.929688 -7.070312 4.453125 -11.914062 5.367188 -16.5 L 5.367188 -16.367188 C 5.761719 -19.378906 6.417969 -22.128906 6.941406 -22.128906 C 7.203125 -22.261719 7.203125 -21.867188 7.070312 -21.738281 Z M 7.070312 -21.738281 "/></g></g></g><g fill="#222222" fill-opacity="1"><g transform="translate(400.670018, 407.249522)"><g><path d="M 66.652344 -31.558594 C 66.519531 -34.4375 64.164062 -31.949219 63.375 -30.902344 C 61.675781 -28.414062 60.101562 -25.796875 58.53125 -23.308594 C 54.996094 -17.9375 51.460938 -12.570312 47.402344 -7.464844 C 33.914062 9.167969 43.34375 -20.425781 42.292969 -20.164062 C 41.769531 -20.035156 41.378906 -18.070312 41.246094 -17.675781 C 42.292969 -22.390625 44.257812 -28.023438 46.746094 -32.605469 C 48.1875 -35.484375 49.890625 -37.84375 47.269531 -40.984375 C 42.425781 -46.878906 36.796875 -41.507812 33.652344 -37.449219 C 32.34375 -42.425781 29.722656 -49.757812 23.308594 -49.757812 C 20.425781 -49.757812 18.726562 -48.316406 16.761719 -46.617188 C 15.582031 -45.832031 14.664062 -45.699219 13.617188 -44.78125 C 11.914062 -43.605469 10.738281 -41.769531 9.558594 -40.199219 C 5.105469 -33.652344 1.964844 -25.402344 0.523438 -17.808594 C -0.132812 -14.140625 -0.394531 -10.082031 0.65625 -6.417969 C 1.308594 -4.320312 3.667969 0.394531 6.679688 0 C 6.808594 0 6.546875 -0.132812 6.15625 -0.394531 C 7.988281 0.132812 10.082031 -0.132812 11.652344 -1.179688 C 11.785156 -0.917969 10.214844 -0.261719 10.214844 -0.261719 C 11.652344 1.964844 22.390625 -11 23.175781 -12.179688 C 24.878906 -14.535156 26.058594 -17.023438 27.628906 -19.511719 C 28.808594 -21.34375 30.640625 -23.699219 31.949219 -25.664062 C 31.820312 -24.75 31.820312 -23.570312 31.820312 -23.570312 C 29.460938 -16.105469 27.238281 -7.988281 30.378906 -0.261719 C 31.820312 3.667969 35.355469 7.332031 39.808594 6.546875 C 43.734375 5.890625 47.007812 2.09375 49.367188 -0.917969 C 52.246094 -4.320312 54.734375 -8.117188 57.222656 -12.046875 C 59.316406 -15.582031 61.28125 -19.117188 62.984375 -23.046875 C 64.03125 -25.535156 66.914062 -28.546875 66.652344 -31.558594 Z M 29.070312 -30.640625 C 28.414062 -29.722656 27.761719 -28.808594 27.238281 -27.890625 L 23.832031 -23.046875 C 21.605469 -19.773438 19.25 -16.628906 16.761719 -13.617188 C 16.105469 -12.703125 12.964844 -8.640625 11.652344 -9.035156 C 9.691406 -9.691406 11.785156 -16.5 12.046875 -17.546875 C 12.441406 -19.378906 19.378906 -39.546875 21.214844 -39.9375 C 18.855469 -40.070312 11.261719 -16.367188 10.867188 -14.402344 C 11.914062 -20.820312 14.273438 -27.105469 16.890625 -32.996094 C 18.332031 -36.007812 21.605469 -43.996094 25.925781 -43.996094 C 28.285156 -43.996094 28.808594 -39.152344 29.199219 -37.582031 C 29.070312 -37.84375 27.890625 -41.640625 27.761719 -41.507812 C 27.105469 -40.984375 29.722656 -33.785156 29.722656 -32.734375 C 29.722656 -31.6875 29.722656 -31.6875 29.070312 -30.640625 Z M 32.082031 -24.226562 C 32.082031 -24.226562 32.472656 -26.058594 32.605469 -26.449219 L 33.261719 -27.367188 Z M 30.117188 -32.34375 L 30.117188 -33.652344 C 30.511719 -33.128906 30.511719 -32.734375 30.117188 -32.34375 Z M 30.117188 -32.34375 "/></g></g></g><g fill="#222222" fill-opacity="1"><g transform="translate(457.76154, 407.249522)"><g><path d="M 56.304688 -46.09375 C 72.804688 -53.292969 89.171875 -72.675781 86.816406 -91.53125 C 86.160156 -97.816406 81.578125 -105.410156 74.246094 -104.230469 C 70.316406 -103.578125 66.519531 -99.386719 63.769531 -96.769531 C 60.234375 -93.230469 56.828125 -89.433594 53.6875 -85.507812 C 47.140625 -77.519531 41.117188 -68.875 35.617188 -60.101562 C 33.128906 -55.914062 30.773438 -51.59375 28.546875 -47.269531 C 27.238281 -44.914062 26.058594 -42.558594 25.011719 -40.070312 C 24.09375 -38.105469 22.261719 -35.484375 22 -33.261719 C 22.390625 -35.617188 24.878906 -39.414062 26.058594 -41.769531 C 27.628906 -45.042969 29.332031 -48.316406 31.035156 -51.59375 C 34.699219 -58.007812 38.628906 -64.292969 42.820312 -70.316406 C 31.6875 -53.949219 22.261719 -35.878906 16.628906 -16.761719 L 17.152344 -21.738281 C 17.152344 -22.128906 17.808594 -28.414062 17.675781 -28.285156 C 17.414062 -28.023438 17.285156 -27.761719 17.152344 -27.5 C 17.808594 -31.6875 19.511719 -36.402344 20.6875 -40.59375 C 22.128906 -45.832031 23.175781 -51.066406 24.617188 -56.304688 C 26.1875 -61.804688 28.152344 -67.042969 30.378906 -72.28125 C 31.035156 -73.460938 37.1875 -86.816406 37.84375 -87.207031 C 36.925781 -86.816406 31.558594 -75.6875 30.25 -72.9375 C 33.390625 -80.269531 37.058594 -87.339844 41.769531 -93.757812 C 41.378906 -93.101562 40.855469 -92.183594 40.984375 -92.183594 C 41.378906 -92.054688 44.78125 -96.503906 44.519531 -96.636719 C 44.257812 -96.636719 43.996094 -96.503906 43.867188 -96.375 C 44.652344 -97.292969 45.4375 -97.554688 45.4375 -99.125 C 45.304688 -101.21875 43.34375 -104.101562 41.378906 -104.886719 C 37.058594 -106.457031 34.175781 -100.828125 31.820312 -98.992188 C 28.023438 -95.851562 26.320312 -91.53125 23.960938 -87.207031 C 23.4375 -86.03125 17.152344 -72.148438 17.546875 -72.019531 L 16.628906 -69.136719 C 16.5 -69.269531 17.023438 -70.054688 16.761719 -70.1875 C 15.453125 -70.449219 12.179688 -58.792969 11.914062 -57.878906 C 11.523438 -55.257812 10.867188 -52.902344 10.082031 -50.28125 C 9.691406 -48.972656 9.167969 -47.53125 8.902344 -46.09375 C 8.773438 -45.960938 8.378906 -42.558594 8.902344 -43.867188 C 8.902344 -43.472656 8.773438 -43.210938 8.773438 -42.949219 C 8.640625 -43.082031 8.640625 -43.210938 8.640625 -43.34375 C 8.25 -43.210938 7.855469 -39.152344 7.726562 -38.628906 C 6.941406 -36.535156 6.15625 -34.570312 5.628906 -32.34375 C 4.320312 -26.972656 4.058594 -21.34375 3.796875 -15.84375 C 3.667969 -11.261719 2.617188 -4.976562 4.582031 -0.65625 C 6.285156 3.535156 11.652344 6.285156 15.320312 2.355469 L 15.714844 3.144531 C 16.628906 -2.09375 17.675781 -7.203125 19.25 -12.308594 C 22.390625 -22.261719 26.710938 -31.425781 30.773438 -40.984375 C 32.082031 -44.128906 34.570312 -46.617188 36.402344 -49.628906 C 39.414062 -54.734375 42.425781 -59.710938 45.699219 -64.6875 C 51.328125 -73.460938 57.746094 -82.234375 65.210938 -89.566406 C 66.652344 -91.007812 69.398438 -94.410156 71.757812 -93.757812 C 75.292969 -92.839844 73.589844 -84.851562 71.886719 -80.921875 L 71.757812 -80.53125 L 71.625 -80.398438 L 71.625 -80.269531 C 70.578125 -77.386719 69.136719 -74.636719 67.699219 -71.886719 C 67.699219 -72.019531 68.746094 -74.375 68.746094 -74.375 C 68.089844 -74.507812 63.902344 -67.304688 63.246094 -66.386719 C 60.628906 -62.851562 57.878906 -59.449219 54.734375 -56.4375 C 51.855469 -53.554688 48.710938 -51.066406 45.4375 -48.710938 C 43.472656 -47.53125 40.722656 -46.878906 39.019531 -45.570312 C 35.222656 -42.558594 44.78125 -36.402344 48.1875 -37.320312 C 51.066406 -38.105469 53.164062 -39.808594 56.4375 -39.414062 C 58.007812 -39.152344 59.449219 -38.628906 60.628906 -37.449219 C 60.757812 -37.449219 62.328125 -35.617188 62.722656 -34.960938 L 62.722656 -35.355469 C 63.375 -33.914062 63.640625 -32.472656 63.769531 -31.035156 C 63.640625 -31.6875 63.113281 -32.605469 62.984375 -33.523438 C 62.984375 -32.082031 63.507812 -29.59375 63.769531 -29.460938 C 64.554688 -28.675781 62.984375 -23.4375 62.199219 -21.738281 C 60.628906 -18.332031 58.269531 -15.191406 55.78125 -12.308594 C 50.414062 -6.285156 43.867188 -1.441406 36.925781 2.75 C 29.59375 7.203125 21.605469 11 13.226562 13.488281 C 9.691406 14.664062 6.023438 15.191406 2.226562 15.84375 C 0.65625 16.105469 -0.785156 15.976562 0.523438 17.546875 C 1.832031 19.378906 7.464844 19.902344 9.558594 20.164062 C 13.488281 20.949219 17.414062 20.6875 21.476562 19.902344 C 28.023438 18.59375 34.832031 16.238281 40.855469 13.488281 C 55.257812 7.070312 69.53125 -3.796875 74.507812 -19.25 C 75.949219 -23.699219 76.863281 -28.9375 75.949219 -33.523438 C 73.984375 -42.820312 65.078125 -46.878906 56.304688 -46.09375 Z M 62.066406 -13.355469 C 61.152344 -10.867188 58.925781 -8.25 56.960938 -6.546875 C 55.128906 -4.976562 53.164062 -4.191406 51.59375 -3.011719 L 56.042969 -7.726562 C 59.316406 -11.523438 61.804688 -15.058594 64.03125 -19.640625 L 64.6875 -21.214844 C 64.425781 -18.988281 62.984375 -15.453125 62.066406 -13.355469 Z M 78.304688 -69.136719 C 79.613281 -71.363281 81.578125 -74.246094 82.886719 -77.125 C 81.578125 -72.804688 80.007812 -69.269531 76.734375 -65.601562 C 75.554688 -64.425781 74.507812 -63.113281 73.328125 -61.804688 C 75.160156 -64.164062 76.863281 -66.519531 78.304688 -69.136719 Z M 9.429688 -28.546875 C 8.640625 -26.710938 8.25 -23.832031 8.378906 -21.867188 C 8.117188 -24.75 8.511719 -28.675781 9.296875 -31.425781 C 9.691406 -32.605469 10.605469 -34.046875 11.261719 -35.355469 C 11.261719 -34.699219 11.261719 -33.914062 11.128906 -33.128906 C 10.867188 -31.425781 10.082031 -29.984375 9.429688 -28.546875 Z M 27.890625 -67.175781 C 27.890625 -67.4375 28.023438 -67.699219 28.152344 -67.960938 Z M 53.03125 -84.066406 L 52.117188 -83.148438 Z M 29.984375 -72.410156 C 29.984375 -72.542969 30.117188 -72.804688 30.25 -72.9375 Z M 29.984375 -72.410156 "/></g></g></g><g fill="#222222" fill-opacity="1"><g transform="translate(541.958435, 407.249522)"><g><path d="M 52.378906 -33.390625 C 50.542969 -31.425781 49.367188 -28.152344 47.925781 -25.796875 C 45.699219 -22 43.472656 -18.332031 41.117188 -14.664062 C 36.664062 -7.59375 32.210938 -0.394531 26.84375 6.023438 C 24.617188 8.773438 19.902344 15.453125 15.453125 14.925781 C 12.179688 14.402344 12.179688 8.773438 12.179688 6.285156 C 12.179688 4.191406 12.308594 2.09375 12.570312 0.132812 C 12.703125 -1.046875 13.75 -4.976562 13.09375 -6.023438 L 12.046875 -2.09375 C 12.179688 -3.667969 12.441406 -5.367188 12.832031 -6.941406 C 12.703125 -7.203125 13.878906 -10.867188 14.140625 -12.046875 C 14.796875 -14.664062 15.453125 -17.285156 16.238281 -19.902344 C 16.890625 -22.523438 17.546875 -25.011719 18.332031 -27.5 C 18.988281 -29.855469 19.902344 -31.035156 21.34375 -32.867188 C 27.238281 -40.199219 32.605469 -48.1875 37.582031 -56.175781 C 39.414062 -59.1875 40.59375 -61.804688 42.820312 -64.292969 C 46.09375 -67.699219 48.316406 -72.804688 50.414062 -76.996094 C 53.949219 -83.804688 58.664062 -93.230469 57.878906 -101.21875 L 57.878906 -101.875 L 57.746094 -102.003906 C 56.960938 -107.113281 52.246094 -113.136719 46.484375 -111.300781 C 43.472656 -110.386719 41.246094 -107.242188 39.414062 -105.015625 L 36.402344 -100.957031 C 35.746094 -100.171875 34.832031 -98.207031 34.175781 -97.160156 L 34.308594 -97.292969 L 30.117188 -90.089844 L 31.164062 -92.316406 C 30.511719 -92.445312 27.628906 -86.816406 27.238281 -86.160156 C 25.796875 -83.671875 24.488281 -81.183594 23.308594 -78.699219 C 20.6875 -73.460938 18.070312 -68.089844 16.367188 -62.460938 C 14.535156 -56.828125 12.441406 -51.328125 10.476562 -45.699219 C 9.429688 -42.6875 8.378906 -39.546875 7.464844 -36.535156 C 6.679688 -34.046875 4.84375 -29.984375 5.238281 -27.367188 L 5.628906 -27.367188 C 5.238281 -26.449219 4.976562 -25.535156 4.714844 -24.617188 C 4.84375 -25.402344 4.84375 -26.320312 4.976562 -26.582031 C 4.320312 -25.664062 4.453125 -22.523438 4.320312 -22.261719 C 2.617188 -15.191406 0.65625 -8.117188 0.132812 -0.785156 C -0.261719 6.15625 -0.261719 15.320312 5.238281 20.425781 C 11.390625 26.058594 18.464844 22.261719 23.570312 17.414062 C 29.59375 11.523438 34.699219 4.582031 39.414062 -2.226562 C 43.734375 -8.511719 47.140625 -15.191406 51.066406 -21.476562 C 52.640625 -24.09375 54.339844 -26.710938 55.128906 -29.59375 C 55.652344 -31.6875 55.390625 -36.535156 52.378906 -33.390625 Z M 36.007812 -80.269531 C 38.628906 -86.554688 41.246094 -92.96875 44.914062 -98.863281 C 45.832031 -100.304688 51.722656 -108.160156 51.460938 -101.21875 L 51.460938 -101.089844 C 51.199219 -93.757812 46.484375 -86.03125 43.34375 -79.746094 L 37.84375 -69.53125 C 36.007812 -66.386719 32.867188 -62.460938 31.820312 -59.054688 C 32.605469 -61.152344 34.960938 -64.164062 36.140625 -66.125 C 38.105469 -69.398438 39.808594 -72.675781 41.640625 -75.949219 C 44.652344 -81.710938 47.925781 -87.734375 50.152344 -94.019531 C 44.257812 -76.472656 33.261719 -60.101562 23.570312 -44.519531 C 27.367188 -56.042969 31.164062 -68.613281 36.007812 -80.269531 Z M 31.820312 -89.433594 C 33.128906 -91.921875 35.484375 -94.019531 36.796875 -96.375 C 34.046875 -90.875 30.640625 -85.898438 27.761719 -80.660156 C 27.761719 -80.792969 27.761719 -81.054688 27.890625 -81.183594 C 29.070312 -84.066406 30.378906 -86.683594 31.820312 -89.433594 Z M 7.070312 -21.738281 C 6.941406 -21.476562 6.941406 -21.34375 6.941406 -21.34375 C 5.367188 -17.675781 5.238281 -12.703125 4.453125 -8.773438 C 4.320312 -7.855469 4.058594 -7.070312 4.058594 -6.15625 L 4.058594 -6.546875 L 3.667969 -2.355469 C 3.929688 -7.070312 4.453125 -11.914062 5.367188 -16.5 L 5.367188 -16.367188 C 5.761719 -19.378906 6.417969 -22.128906 6.941406 -22.128906 C 7.203125 -22.261719 7.203125 -21.867188 7.070312 -21.738281 Z M 7.070312 -21.738281 "/></g></g></g><g fill="#222222" fill-opacity="1"><g transform="translate(588.312559, 407.249522)"><g><path d="M 60.234375 -32.605469 C 60.234375 -32.605469 60.363281 -32.472656 60.234375 -32.734375 C 59.578125 -33.652344 58.664062 -32.996094 57.746094 -32.734375 C 53.949219 -31.949219 50.019531 -31.035156 46.09375 -30.378906 C 47.53125 -35.09375 48.972656 -40.070312 49.496094 -44.914062 C 49.757812 -46.746094 49.890625 -48.710938 49.496094 -50.542969 C 49.234375 -51.722656 48.84375 -52.902344 48.1875 -53.949219 C 48.1875 -53.949219 46.617188 -55.914062 47.007812 -54.867188 L 46.878906 -54.996094 L 46.355469 -56.042969 L 46.878906 -55.519531 C 47.007812 -56.304688 44.78125 -57.746094 44.78125 -57.746094 C 41.507812 -61.019531 37.058594 -63.507812 32.605469 -61.019531 C 29.855469 -59.449219 27.628906 -56.828125 25.796875 -54.210938 C 25.140625 -53.292969 24.488281 -52.246094 23.960938 -51.199219 C 23.4375 -50.152344 22.652344 -46.746094 21.867188 -46.222656 C 21.214844 -45.699219 19.25 -45.570312 18.332031 -45.042969 C 17.023438 -44.519531 15.84375 -43.867188 14.796875 -43.082031 C 12.308594 -41.507812 10.34375 -39.28125 8.511719 -37.058594 C 5.367188 -32.867188 3.796875 -28.152344 1.570312 -23.960938 C -2.617188 -15.976562 1.964844 -5.5 9.691406 -1.703125 C 12.179688 -0.523438 15.058594 0 17.675781 -0.261719 C 20.425781 -0.65625 23.046875 -2.09375 25.140625 -3.667969 C 27.105469 -5.105469 31.425781 -7.726562 32.210938 -9.953125 C 32.210938 -10.082031 31.949219 -9.953125 31.558594 -9.558594 L 35.355469 -14.011719 C 35.484375 -13.878906 34.4375 -12.570312 34.4375 -12.570312 C 35.355469 -12.179688 40.070312 -19.117188 40.59375 -19.640625 C 41.507812 -21.214844 42.425781 -22.914062 43.472656 -24.488281 C 44.390625 -25.664062 44.128906 -25.535156 45.4375 -26.058594 C 45.304688 -25.925781 47.007812 -26.449219 47.269531 -26.449219 C 48.710938 -26.710938 64.03125 -27.761719 60.234375 -32.605469 Z M 14.925781 -6.15625 L 14.796875 -6.15625 C 3.929688 -4.582031 16.5 -27.628906 16.761719 -28.9375 L 15.976562 -27.761719 C 17.9375 -31.6875 19.773438 -34.832031 20.6875 -35.878906 C 22.128906 -29.332031 29.199219 -26.84375 34.960938 -26.058594 C 31.164062 -18.464844 24.09375 -7.855469 14.925781 -6.15625 Z M 40.722656 -42.425781 C 39.808594 -38.757812 39.019531 -33.914062 37.058594 -30.640625 C 36.402344 -29.332031 36.796875 -29.722656 35.484375 -29.460938 C 34.699219 -29.199219 32.996094 -29.460938 32.210938 -29.59375 C 30.773438 -29.722656 29.070312 -29.984375 28.023438 -30.902344 C 26.1875 -32.472656 26.449219 -34.960938 26.710938 -37.1875 C 26.972656 -39.414062 27.628906 -41.507812 28.414062 -43.605469 C 28.808594 -44.390625 31.296875 -48.582031 30.902344 -49.367188 C 30.773438 -49.757812 29.332031 -47.402344 29.199219 -47.269531 C 29.984375 -48.710938 30.773438 -49.496094 31.425781 -50.414062 C 31.296875 -50.414062 31.425781 -50.542969 31.558594 -50.804688 L 31.558594 -50.675781 L 31.6875 -50.9375 C 31.6875 -50.9375 31.6875 -51.066406 31.820312 -51.066406 C 33.785156 -53.6875 38.628906 -59.578125 41.246094 -55.519531 C 43.210938 -52.117188 41.378906 -45.699219 40.722656 -42.425781 Z M 31.6875 -50.9375 L 31.820312 -51.066406 C 31.820312 -50.9375 31.6875 -50.9375 31.6875 -50.9375 Z M 31.6875 -50.9375 "/></g></g></g><g fill="#222222" fill-opacity="1"><g transform="translate(639.511589, 407.249522)"><g><path d="M 66.78125 -31.425781 C 66.257812 -35.222656 62.460938 -31.425781 61.28125 -30.378906 C 59.054688 -28.675781 56.699219 -27.238281 54.472656 -25.535156 C 51.460938 -23.4375 48.582031 -21.082031 45.699219 -18.726562 C 44.519531 -17.808594 37.320312 -11.128906 36.664062 -11.523438 C 38.757812 -18.070312 42.425781 -24.617188 45.960938 -30.773438 C 49.234375 -36.273438 42.558594 -40.984375 37.1875 -38.628906 C 35.617188 -37.972656 33.914062 -35.09375 32.867188 -33.652344 C 30.378906 -30.117188 28.023438 -26.320312 25.535156 -22.785156 L 22 -17.414062 C 21.605469 -16.890625 19.117188 -13.226562 19.511719 -13.226562 C 19.640625 -13.226562 19.773438 -13.355469 19.902344 -13.488281 C 17.285156 -9.953125 13.488281 -5.5 10.082031 -3.011719 C 5.367188 0.65625 8.117188 -10.34375 8.773438 -12.179688 C 10.738281 -18.070312 14.011719 -23.699219 17.546875 -28.808594 C 18.070312 -29.59375 25.273438 -38.757812 27.628906 -40.984375 C 25.273438 -39.019531 18.203125 -30.25 17.023438 -28.808594 C 21.214844 -34.832031 27.890625 -44.390625 35.746094 -45.699219 L 34.046875 -45.042969 C 35.617188 -45.304688 39.152344 -45.175781 39.152344 -45.175781 L 38.757812 -45.570312 C 39.414062 -45.175781 39.808594 -44.652344 40.59375 -44.652344 C 43.867188 -44.78125 43.082031 -50.019531 41.640625 -51.59375 C 39.675781 -54.210938 34.960938 -55.257812 31.820312 -54.472656 C 30.902344 -54.210938 30.511719 -53.6875 29.460938 -53.554688 C 28.285156 -53.292969 27.367188 -53.554688 25.925781 -52.769531 C 23.308594 -51.460938 21.082031 -49.628906 18.988281 -47.53125 C 17.675781 -46.355469 5.105469 -32.867188 6.023438 -32.34375 C 6.285156 -32.34375 6.546875 -32.605469 6.679688 -32.734375 L 4.453125 -29.460938 C 4.320312 -29.59375 4.976562 -30.511719 4.84375 -30.511719 C 4.320312 -30.773438 1.703125 -26.449219 1.570312 -26.058594 C 0.261719 -23.960938 -0.785156 -21.605469 -1.179688 -19.117188 C -1.703125 -16.367188 -1.832031 -13.355469 -1.832031 -10.605469 C -1.832031 -8.773438 -1.703125 -6.941406 -1.179688 -5.238281 C -1.046875 -4.976562 0.523438 -1.964844 0.261719 -3.273438 L 0.65625 -2.355469 C 0.523438 -2.355469 0.394531 -2.488281 0.261719 -2.617188 C -0.261719 -1.703125 4.714844 2.75 5.628906 3.144531 C 7.59375 4.058594 9.429688 3.535156 11.390625 2.355469 C 15.714844 -0.261719 18.726562 -5.238281 21.738281 -9.429688 C 25.011719 -13.878906 28.675781 -18.464844 31.425781 -23.4375 L 28.546875 -13.226562 C 27.367188 -9.429688 26.710938 -3.796875 24.355469 -0.785156 C 21.867188 2.226562 18.203125 4.84375 15.453125 7.464844 C 12.570312 10.082031 9.691406 12.703125 7.070312 15.714844 C 3.273438 20.035156 -0.261719 24.75 -3.535156 29.460938 C -7.332031 34.960938 -9.953125 40.855469 -7.332031 47.269531 C -4.976562 52.902344 0.394531 58.140625 6.941406 56.566406 C 12.570312 55.128906 14.664062 50.414062 17.152344 45.960938 C 25.011719 32.34375 28.9375 16.628906 33.390625 1.570312 C 34.046875 -0.65625 34.4375 -2.878906 36.007812 -4.582031 C 37.582031 -6.15625 39.546875 -7.59375 41.378906 -9.035156 C 45.042969 -12.308594 48.84375 -15.320312 52.769531 -18.464844 L 63.375 -26.582031 C 65.078125 -27.890625 67.304688 -28.9375 66.78125 -31.425781 Z M 20.425781 13.09375 C 20.425781 12.964844 19.773438 14.796875 19.902344 14.535156 C 17.152344 22.523438 14.535156 30.511719 10.867188 38.105469 C 9.035156 41.902344 0.394531 57.617188 -2.75 46.09375 C -4.84375 38.757812 2.226562 30.378906 6.285156 25.011719 C 11.261719 18.59375 16.367188 12.832031 22.261719 7.332031 C 21.738281 9.296875 21.082031 11.261719 20.425781 13.09375 Z M 19.902344 22.261719 C 19.117188 25.140625 18.203125 28.023438 17.023438 30.773438 C 15.84375 32.996094 14.273438 34.960938 13.09375 37.058594 C 15.453125 31.949219 17.9375 27.105469 19.902344 21.867188 Z M 13.355469 -26.1875 C 12.570312 -24.75 11.390625 -23.4375 10.34375 -22 C 11.390625 -24.355469 12.441406 -26.449219 14.402344 -28.546875 C 14.796875 -28.9375 15.453125 -29.59375 15.84375 -30.25 Z M 13.226562 -22.785156 L 12.046875 -21.082031 C 12.832031 -22.523438 13.75 -23.960938 14.796875 -25.402344 Z M 13.226562 -22.785156 "/></g></g></g><g fill="#222222" fill-opacity="1"><g transform="translate(406.299017, 469.297245)"><g/></g></g></svg>